<?xml version="1.0" encoding="utf-8"?>
<!-- Generator: Adobe Illustrator 16.0.4, SVG Export Plug-In . SVG Version: 6.00 Build 0)  -->
<!DOCTYPE svg PUBLIC "-//W3C//DTD SVG 1.1//EN" "http://www.w3.org/Graphics/SVG/1.1/DTD/svg11.dtd">
<svg version="1.1" id="Calque_1" xmlns="http://www.w3.org/2000/svg" xmlns:xlink="http://www.w3.org/1999/xlink" x="0px" y="0px"
	 width="500px" height="500px" viewBox="0 0 500 500" enable-background="new 0 0 500 500" xml:space="preserve">
<linearGradient id="SVGID_1_" gradientUnits="userSpaceOnUse" x1="250.002" y1="4.882812e-04" x2="250.0019" y2="501.4912">
	<stop  offset="0" style="stop-color:#555555"/>
	<stop  offset="1" style="stop-color:#4C4C4C"/>
</linearGradient>
<rect x="0.002" y="0" fill="url(#SVGID_1_)" width="500" height="501.491"/>
<g>
	<g>
		<polygon fill="#FFFFFF" points="224.106,317.125 234.906,317.125 239.297,287.755 239.558,317.125 252.244,317.125 
			261.22,288.251 256.9,317.125 269.379,317.125 275.834,274.221 256.807,274.221 249.072,299.046 249.471,274.224 230.54,274.224 
					"/>
		<path fill="#FFFFFF" d="M311.354,317.125l-3.669-42.908h-17.74l-18.237,42.918h13.282l2.58-6.797h9.511v6.787H311.354z
			 M296.353,299.535h-5.549l5.549-15.17V299.535z"/>
		<polygon fill="#FFFFFF" points="313.673,317.119 324.506,317.119 328.356,291.5 332.06,317.122 348.273,317.122 354.723,274.216 
			343.617,274.216 339.829,299.439 336.487,274.212 320.134,274.212 		"/>
		<polygon fill="#FFFFFF" points="352.9,317.125 366.972,317.125 373.423,274.212 359.351,274.212 		"/>
		<path fill="#FFFFFF" d="M475,274.218l-4.52,30.445c0-0.032-0.96,13.081-18.922,13.081c-15.159,0-14.059-9.426-13.575-13.138
			l4.552-30.391c0,0,12.124-0.004,13.717-0.004l-4.308,28.685c-0.154,1.022-0.531,3.534,2.043,3.534c2.57,0,2.948-2.512,3.097-3.534
			l4.264-28.685C462.194,274.212,475,274.218,475,274.218z"/>
		<path fill="#FFFFFF" d="M432.695,276.164c-3.382-2.354-7.485-1.947-13.288-1.947h-42.979l-1.701,10.891h7.293l-4.753,32.012
			h13.793l4.741-31.981h9.027l-2.631,17.579c0,0-2.944,15.055,13.343,15.055c17.442,0,18.663-13.254,18.663-13.254l2.643-17.563
			C436.846,286.954,438.184,280,432.695,276.164z M420.918,302.902c-0.152,1.025-0.531,3.539-3.102,3.539
			c-2.571,0-2.192-2.514-2.042-3.539l2.144-14.253c0.194-1.317,0.531-3.548,3.105-3.548c2.571,0,2.229,2.23,2.034,3.548
			L420.918,302.902z"/>
	</g>
	<g>
		<path fill="#FFFFFF" d="M65.303,275.278c0,1.726-0.243,3.237-0.732,4.537c-0.488,1.3-1.156,2.437-2.006,3.411
			c-0.849,0.975-1.855,1.793-3.018,2.456s-2.417,1.219-3.77,1.668v0.3c1.752,0.301,3.35,0.812,4.801,1.537
			c1.449,0.726,2.693,1.668,3.729,2.83c1.037,1.164,1.845,2.537,2.418,4.125c0.575,1.586,0.862,3.393,0.862,5.416
			c0,4.949-1.623,8.654-4.873,11.115c-3.249,2.463-8.198,3.693-14.845,3.693H25v-3.223h0.975c0.876,0,1.695-0.063,2.457-0.188
			c0.762-0.126,1.431-0.383,2.006-0.77c0.574-0.388,1.024-0.943,1.348-1.668c0.326-0.726,0.489-1.688,0.489-2.887v-37.64
			c0-1.124-0.171-2.03-0.506-2.718c-0.338-0.688-0.793-1.219-1.37-1.594c-0.574-0.374-1.243-0.618-2.006-0.73
			c-0.761-0.112-1.567-0.169-2.418-0.169H25v-3.225h20.583c6.647,0,11.597,1.106,14.846,3.318
			C63.676,267.087,65.303,270.555,65.303,275.278z M40.034,285.739h5.323c2.248,0,4.125-0.2,5.623-0.601
			c1.501-0.399,2.699-1.018,3.6-1.855c0.898-0.837,1.544-1.918,1.932-3.242c0.386-1.324,0.58-2.912,0.58-4.763
			c0-1.872-0.213-3.442-0.638-4.704c-0.426-1.262-1.111-2.28-2.062-3.055c-0.949-0.775-2.182-1.325-3.693-1.65
			c-1.512-0.324-3.354-0.486-5.529-0.486h-5.136V285.739z M40.034,312.542h7.459c2.175,0,4.013-0.199,5.513-0.6
			s2.724-1.043,3.673-1.93c0.951-0.889,1.639-2.044,2.062-3.469c0.426-1.424,0.637-3.161,0.637-5.211
			c0-1.998-0.188-3.736-0.562-5.211c-0.374-1.475-1.018-2.699-1.93-3.674s-2.12-1.699-3.618-2.174
			c-1.501-0.475-3.374-0.713-5.622-0.713h-7.611V312.542z"/>
		<path fill="#FFFFFF" d="M74.262,313.144c0.875,0,1.693-0.063,2.455-0.188c0.762-0.126,1.424-0.383,1.987-0.77
			c0.562-0.388,1.011-0.943,1.349-1.668c0.34-0.726,0.509-1.688,0.509-2.887v-41.163c0-1.125-0.169-2.03-0.509-2.718
			c-0.338-0.688-0.793-1.219-1.367-1.594c-0.575-0.375-1.243-0.619-2.006-0.73c-0.763-0.113-1.568-0.169-2.418-0.169h-0.975v-3.225
			h14.509v49.599c0,1.199,0.162,2.161,0.485,2.887c0.326,0.725,0.776,1.28,1.35,1.668c0.575,0.387,1.245,0.644,2.006,0.77
			c0.764,0.124,1.583,0.188,2.456,0.188h0.976v3.223H73.287v-3.223H74.262z"/>
		<path fill="#FFFFFF" d="M136.155,295.71c0,7.223-1.529,12.596-4.591,16.121c-3.062,3.523-7.542,5.285-13.441,5.285
			c-2.773,0-5.26-0.438-7.461-1.312c-2.198-0.874-4.066-2.199-5.604-3.973c-1.535-1.775-2.712-4.006-3.521-6.692
			c-0.813-2.687-1.22-5.829-1.22-9.429c0-7.173,1.518-12.509,4.554-16.008c3.037-3.498,7.53-5.248,13.479-5.248
			c2.773,0,5.261,0.431,7.46,1.293c2.2,0.862,4.067,2.174,5.605,3.936c1.535,1.762,2.711,3.975,3.522,6.637
			C135.75,288.981,136.155,292.111,136.155,295.71z M107.739,295.71c0,2.85,0.188,5.361,0.562,7.535
			c0.376,2.174,0.982,3.992,1.818,5.455c0.838,1.461,1.925,2.568,3.263,3.317c1.335,0.75,2.968,1.126,4.892,1.126
			c1.923,0,3.549-0.376,4.873-1.126c1.327-0.749,2.399-1.856,3.226-3.317c0.824-1.463,1.418-3.281,1.78-5.455
			s0.544-4.686,0.544-7.535s-0.188-5.349-0.563-7.498s-0.976-3.942-1.799-5.38c-0.825-1.437-1.905-2.517-3.244-3.243
			c-1.337-0.724-2.967-1.086-4.893-1.086c-1.922,0-3.549,0.362-4.872,1.086c-1.327,0.727-2.399,1.807-3.225,3.243
			c-0.824,1.438-1.424,3.23-1.8,5.38C107.927,290.362,107.739,292.861,107.739,295.71z"/>
		<path fill="#FFFFFF" d="M180.768,276.816c0,0.551-0.081,1.068-0.244,1.557c-0.161,0.486-0.404,0.912-0.731,1.274
			c-0.325,0.362-0.742,0.648-1.255,0.861c-0.512,0.214-1.118,0.319-1.818,0.319c0-0.301-0.035-0.6-0.111-0.9
			c-0.076-0.3-0.207-0.58-0.394-0.844c-0.188-0.262-0.444-0.475-0.768-0.637c-0.327-0.162-0.752-0.244-1.276-0.244
			c-0.65,0-1.237,0.075-1.762,0.225c-0.525,0.15-1.038,0.389-1.537,0.713c0.875,1.075,1.593,2.344,2.155,3.805
			c0.562,1.463,0.844,3.293,0.844,5.493c0,1.898-0.288,3.654-0.863,5.267c-0.575,1.611-1.43,3.006-2.566,4.181
			s-2.573,2.093-4.311,2.755c-1.738,0.663-3.77,0.994-6.094,0.994c-0.299,0-0.637-0.007-1.012-0.02
			c-0.376-0.013-0.749-0.025-1.124-0.037c-0.376-0.012-0.726-0.037-1.05-0.074c-0.326-0.038-0.589-0.07-0.789-0.095
			c-0.498,0.251-0.973,0.525-1.422,0.825c-0.451,0.3-0.845,0.637-1.182,1.012c-0.338,0.376-0.606,0.8-0.808,1.275
			c-0.201,0.475-0.299,0.998-0.299,1.574c0,0.625,0.117,1.125,0.355,1.5c0.237,0.374,0.57,0.668,0.994,0.881
			c0.425,0.213,0.93,0.35,1.518,0.412c0.589,0.062,1.219,0.094,1.895,0.094h8.696c2.301,0,4.249,0.287,5.85,0.861
			c1.599,0.576,2.903,1.369,3.916,2.381c1.013,1.013,1.751,2.225,2.211,3.637c0.464,1.412,0.694,2.943,0.694,4.592
			c0,2.2-0.405,4.187-1.22,5.962c-0.81,1.774-2.054,3.279-3.728,4.517c-1.676,1.236-3.793,2.193-6.355,2.868
			c-2.561,0.675-5.578,1.013-9.055,1.013c-5.347,0-9.346-0.988-11.996-2.962c-2.648-1.975-3.971-4.724-3.971-8.248
			c0-1.499,0.258-2.812,0.784-3.936s1.231-2.087,2.12-2.888c0.887-0.799,1.904-1.449,3.055-1.949s2.362-0.862,3.635-1.087
			c-0.524-0.225-1.035-0.524-1.535-0.899s-0.949-0.825-1.35-1.35c-0.401-0.525-0.726-1.125-0.977-1.8
			c-0.249-0.675-0.374-1.425-0.374-2.249c0-1.525,0.399-2.844,1.2-3.955c0.8-1.113,2.073-2.193,3.824-3.244
			c-1.099-0.449-2.082-1.067-2.943-1.854c-0.861-0.788-1.587-1.688-2.174-2.7c-0.588-1.012-1.037-2.117-1.35-3.316
			c-0.313-1.2-0.468-2.438-0.468-3.713c0-2.224,0.299-4.21,0.897-5.96c0.602-1.75,1.502-3.237,2.699-4.462
			c1.201-1.225,2.698-2.16,4.5-2.811c1.799-0.65,3.911-0.975,6.335-0.975c0.925,0,1.837,0.068,2.735,0.205
			c0.901,0.139,1.731,0.325,2.495,0.562c0.762,0.238,1.448,0.506,2.061,0.807c0.614,0.299,1.107,0.611,1.481,0.938
			c0.375-0.4,0.813-0.844,1.312-1.332c0.502-0.486,1.063-0.938,1.688-1.349c0.624-0.412,1.306-0.757,2.043-1.031
			c0.738-0.274,1.531-0.412,2.381-0.412c0.774,0,1.443,0.106,2.006,0.319c0.562,0.211,1.03,0.5,1.406,0.861
			c0.374,0.362,0.655,0.787,0.841,1.275C180.674,275.785,180.768,276.291,180.768,276.816z M148.378,323.115
			c0,1.125,0.149,2.176,0.449,3.149c0.299,0.976,0.824,1.812,1.575,2.511c0.749,0.701,1.763,1.25,3.037,1.65
			c1.273,0.4,2.886,0.6,4.836,0.6c2.748,0,5.016-0.23,6.803-0.693c1.787-0.462,3.207-1.105,4.255-1.931
			c1.05-0.825,1.789-1.806,2.213-2.942s0.637-2.381,0.637-3.73c0-1.176-0.169-2.143-0.504-2.906
			c-0.339-0.762-0.84-1.361-1.502-1.799s-1.479-0.744-2.455-0.918c-0.975-0.174-2.1-0.262-3.373-0.262h-7.537
			c-1.075,0-2.117,0.092-3.13,0.28c-1.012,0.188-1.911,0.544-2.699,1.069c-0.787,0.523-1.418,1.262-1.892,2.211
			C148.613,320.353,148.378,321.591,148.378,323.115z M152.838,288.438c0,3.272,0.545,5.673,1.631,7.197
			c1.088,1.524,2.869,2.288,5.344,2.288c1.249,0,2.305-0.189,3.167-0.563c0.861-0.375,1.569-0.95,2.119-1.725
			c0.548-0.774,0.942-1.769,1.181-2.98c0.237-1.212,0.355-2.655,0.355-4.329c0-3.449-0.524-5.999-1.574-7.648
			c-1.051-1.649-2.824-2.475-5.323-2.475c-2.475,0-4.244,0.844-5.306,2.531C153.37,282.42,152.838,284.988,152.838,288.438z"/>
	</g>
	<path fill="#FFFFFF" d="M199.511,219.214"/>
	<path fill="#FFFFFF" d="M244.136,217.927c-0.832-1.579-20.629-52.688-20.629-52.688h-21.405l-21.148-0.052
		c0,0-19.717,49.901-20.886,52.535c34.104,37.747,33.718,76.553,33.718,76.553h5.726v-76.498c-3.907-1.124-6.768-4.719-6.768-8.987
		c0-5.168,4.188-9.358,9.358-9.358c5.169,0,9.357,4.19,9.357,9.358c0,4.363-2.989,8.019-7.029,9.055l-0.301,76.409h5.615
		C209.744,294.253,207.31,258.283,244.136,217.927z"/>
	<g>
		<path fill-rule="evenodd" clip-rule="evenodd" fill="#FFFFFF" d="M201.691,298.113c1.31-0.287,1.632,0.787,1.997,1.703
			c1.309,3.27,2.81,6.506,4.408,9.52c1.076,2.03,2.308,3.51,2.468,6.17c0.101,1.663-0.354,3.242-0.882,4.291
			c-1.324,2.636-4.012,4.484-6.992,4.701c-2.788,0.202-5-0.923-6.522-2.352c-1.481-1.389-2.697-3.312-2.704-6.17
			c-0.003-1.623,0.59-3.288,1.471-4.877c1.986-3.59,3.546-6.58,5.17-10.637C200.517,299.431,200.626,298.345,201.691,298.113z
			 M203.337,309.572c-0.323,0.779-0.565,1.826-0.764,2.938c-0.188,1.048-0.386,2.549-0.235,3.467
			c0.164,1.002,1.058,1.682,1.939,1.764c1.323,0.121,2.363-0.848,2.468-1.939c0.066-0.688-0.243-1.262-0.471-1.881
			c-0.465-1.268-0.942-2.115-1.586-3.173c-0.265-0.436-0.586-1.272-1.117-1.352C203.455,309.488,203.35,309.542,203.337,309.572z"/>
	</g>
</g>
</svg>
