<?xml version="1.0" encoding="utf-8"?>
<!-- Generator: Adobe Illustrator 16.0.4, SVG Export Plug-In . SVG Version: 6.00 Build 0)  -->
<!DOCTYPE svg PUBLIC "-//W3C//DTD SVG 1.1//EN" "http://www.w3.org/Graphics/SVG/1.1/DTD/svg11.dtd">
<svg version="1.1" id="Calque_1" xmlns="http://www.w3.org/2000/svg" xmlns:xlink="http://www.w3.org/1999/xlink" x="0px" y="0px"
	 width="500px" height="500px" viewBox="0 0 500 500" enable-background="new 0 0 500 500" xml:space="preserve">
<linearGradient id="SVGID_1_" gradientUnits="userSpaceOnUse" x1="250" y1="4.882812e-04" x2="250" y2="501.4922">
	<stop  offset="0" style="stop-color:#555555"/>
	<stop  offset="1" style="stop-color:#4C4C4C"/>
</linearGradient>
<rect y="0" fill="url(#SVGID_1_)" width="500" height="501.491"/>
<g>
	<polygon fill="#FFFFFF" points="75,279.498 90.066,279.498 96.189,238.526 96.555,279.498 114.251,279.498 126.773,239.218 
		120.748,279.498 138.154,279.498 147.161,219.646 120.617,219.646 109.825,254.277 110.383,219.65 83.975,219.65 	"/>
	<path fill="#FFFFFF" d="M196.711,279.498l-5.117-59.86h-24.746l-25.443,59.874h18.528l3.599-9.483h13.268v9.47H196.711z
		 M175.783,254.958h-7.74l7.74-21.163V254.958z"/>
	<polygon fill="#FFFFFF" points="199.945,279.489 215.059,279.489 220.43,243.75 225.596,279.493 248.213,279.493 257.211,219.637 
		241.721,219.637 236.436,254.826 231.773,219.633 208.959,219.633 	"/>
	<polygon fill="#FFFFFF" points="254.67,279.498 274.299,279.498 283.297,219.633 263.668,219.633 	"/>
	<path fill="#FFFFFF" d="M425,219.642l-6.305,42.472c0-0.046-1.342,18.248-26.396,18.248c-21.147,0-19.613-13.149-18.937-18.327
		l6.35-42.397c0,0,16.91-0.004,19.134-0.004l-6.01,40.016c-0.215,1.425-0.741,4.931,2.85,4.931c3.586,0,4.111-3.506,4.322-4.931
		l5.945-40.016C407.137,219.633,425,219.642,425,219.642z"/>
	<path fill="#FFFFFF" d="M365.984,222.355c-4.719-3.284-10.442-2.718-18.539-2.718h-59.956l-2.373,15.193h10.175l-6.632,44.658
		H307.9l6.619-44.615h12.588l-3.668,24.522c0,0-4.107,21.003,18.613,21.003c24.33,0,26.032-18.49,26.032-18.49l3.689-24.501
		C371.774,237.408,373.641,227.708,365.984,222.355z M349.555,259.657c-0.214,1.43-0.742,4.936-4.328,4.936
		s-3.058-3.506-2.848-4.936l2.99-19.885c0.27-1.836,0.742-4.949,4.332-4.949c3.586,0,3.109,3.113,2.84,4.949L349.555,259.657z"/>
</g>
<g opacity="0.1">
	<path fill="#FFFFFF" d="M122.502,306.084c-0.196,0-0.367,0.059-0.562,0.059c-0.024,0-0.048,0-0.073,0
		c-6.446,0-12.429,5.451-13.038,11.897c-0.256,2.667,0.476,5.093,2.07,6.826c1.098,1.224,3.132,2.669,6.482,2.669
		c0.185,0,0.367-0.05,0.549-0.062c0.025,0,0.049,0.013,0.086,0.013c6.459,0,12.429-5.456,13.051-11.914
		c0.244-2.655-0.487-5.081-2.071-6.821C127.887,307.545,125.854,306.084,122.502,306.084z"/>
	<path fill="#FFFFFF" d="M272.093,245.598c1.449-0.133,2.9-0.303,4.386-0.328c1.913,0,3.79,0.104,5.666,0.297
		c-0.012-0.03-0.012-0.055-0.025-0.084c0.221,0.025,0.441,0.012,0.66,0.037c-5.558-21.045-11.772-44.577-14.404-54.538
		c-9.346,0-14.94,0-22.836,0c-0.012,0.012-0.024,0.03-0.036,0.047c-0.208,0-0.389,0-0.597,0
		c-7.434,13.757-32.778,60.716-32.778,60.716c-2.963,5.493-8.677,8.919-14.929,9.047c-4.277,0-60.003,0-74.99,0
		c-0.012,0.024-0.012,0.03-0.023,0.048c-0.196,0-0.416,0-0.61,0c-3.813,6.566-6.605,11.362-9.286,15.994
		c0.11,0.776,0.159,1.092,0.305,2.014c19.241,0,87.005,0,111.486,0c0.013-0.012,0.013-0.037,0.024-0.049c0.195,0,0.425,0,0.61,0
		c8.127-17.34,24.675-30.037,43.978-32.947C269.802,245.7,270.945,245.688,272.093,245.598z"/>
	<path fill="#FFFFFF" d="M277.111,278.776c-0.194,0-0.377,0.047-0.571,0.061c-0.012,0-0.049-0.014-0.062-0.014
		c-11.856,0-22.824,9.992-23.958,21.84c-0.487,5.16,0.987,9.902,4.145,13.369c3.119,3.414,7.652,5.293,12.746,5.293
		c0.195,0,0.365-0.049,0.56-0.049c0.024,0,0.05,0,0.073,0c11.87,0,22.837-9.996,23.97-21.84c0.487-5.152-0.986-9.906-4.144-13.367
		C286.738,280.661,282.206,278.776,277.111,278.776z"/>
	<path fill="#FFFFFF" d="M436.469,50H63.529C56.07,50,50,56.056,50,63.523v372.952C50,443.943,56.07,450,63.529,450h372.939
		c7.475,0,13.531-6.057,13.531-13.524V63.523C450,56.056,443.943,50,436.469,50z M422.415,272.985l-6.131,17.498
		c-0.549,3.346-3.425,6.724-6.396,7.5l-53.471,14.516c-2.803,0.424-5.521-1.25-6.229-4.033l-4.886-19.299l-0.596,0.146l-0.023-0.104
		l-17.55,4.287c0.085,2.352,0.037,4.754-0.194,7.166c-2.62,27.399-24.909,49.232-51.911,51.924
		c-1.646,0.146-3.315,0.244-4.984,0.244c-14.707,0-28.101-5.785-37.676-16.275c-6.069-6.627-10.104-14.574-11.919-23.221h-63.584
		c0,0.02,0,0.037,0,0.049h-0.635c0.012,0.377,0.037,0.764,0.037,1.145c0,1.165-0.062,2.336-0.171,3.513
		c-1.754,18.42-16.717,33.097-34.863,34.94c-1.071,0.092-2.145,0.151-3.217,0.151c-9.968,0-19.047-3.929-25.565-11.041
		c-6.531-7.153-9.614-16.569-8.663-26.52c0.266-2.734,0.829-5.389,1.645-7.937c-2.23-2.449-3.779-5.529-4.303-8.986l-3.448-22.699
		c-0.122-0.855-0.182-1.722-0.182-2.57c0-3.026,0.791-6.008,2.327-8.659l17.352-29.843c3.047-5.236,8.615-8.451,14.66-8.584
		c2.9,0,59.026,0,74.637,0c0-0.012,0.012-0.025,0.024-0.042c0.184,0,0.427,0,0.596,0c7.434-13.756,32.769-60.709,32.769-60.709
		c2.974-5.493,8.701-8.919,14.951-9.046h46.316c7.886,0,14.771,5.287,16.78,12.877c0,0,17.244,65.337,23.677,89.698
		c0.122-0.031,0.38-0.098,0.599-0.152c0.012,0.031,0.023,0.078,0.035,0.109c1.598-0.479,13.1-2.935,14.635-3.401l-24.762-98.222
		c-0.754-2.988,1.073-6.039,4.084-6.791l15.719-3.686c2.814-0.413,5.57,1.286,6.275,4.086l31.537,125.062
		c0.757,2.983,3.814,4.783,6.812,4.003l0.037-0.014c0.195-0.036,0.391,0.019,0.598-0.036l41.369-11.719
		C421.17,267.922,422.913,269.862,422.415,272.985z"/>
</g>
</svg>
