<?xml version="1.0" encoding="utf-8"?>
<!-- Generator: Adobe Illustrator 16.0.4, SVG Export Plug-In . SVG Version: 6.00 Build 0)  -->
<!DOCTYPE svg PUBLIC "-//W3C//DTD SVG 1.1//EN" "http://www.w3.org/Graphics/SVG/1.1/DTD/svg11.dtd">
<svg version="1.1" id="Calque_1" xmlns="http://www.w3.org/2000/svg" xmlns:xlink="http://www.w3.org/1999/xlink" x="0px" y="0px"
	 width="500px" height="500px" viewBox="0 0 500 500" enable-background="new 0 0 500 500" xml:space="preserve">
<linearGradient id="SVGID_1_" gradientUnits="userSpaceOnUse" x1="250" y1="0" x2="250" y2="501.4922">
	<stop  offset="0" style="stop-color:#B3B3B3"/>
	<stop  offset="1" style="stop-color:#999999"/>
</linearGradient>
<rect fill="url(#SVGID_1_)" width="500" height="501.492"/>
<path fill="#FFFFFF" d="M418.526,268.311l-41.369,11.72c-0.207,0.054-0.402,0-0.598,0.036l-0.037,0.014
	c-2.997,0.781-6.055-1.02-6.812-4.003l-31.537-125.062c-0.705-2.801-3.461-4.499-6.275-4.086l-15.719,3.686
	c-3.011,0.751-4.838,3.802-4.084,6.791l24.762,98.222c-1.535,0.467-13.037,2.922-14.635,3.401c-0.012-0.031-0.023-0.079-0.035-0.109
	c-0.219,0.054-0.477,0.121-0.599,0.151c-6.433-24.361-23.677-89.698-23.677-89.698c-2.01-7.59-8.895-12.877-16.78-12.877h-46.316
	c-6.25,0.127-11.978,3.553-14.951,9.046c0,0-25.335,46.953-32.769,60.709c-0.169,0-0.412,0-0.596,0
	c-0.013,0.017-0.024,0.03-0.024,0.042c-15.61,0-71.736,0-74.637,0c-6.045,0.133-11.613,3.347-14.66,8.584L79.827,264.72
	c-1.536,2.651-2.327,5.633-2.327,8.659c0,0.849,0.06,1.715,0.182,2.571l3.448,22.699c0.523,3.458,2.072,6.537,4.303,8.987
	c-0.815,2.547-1.379,5.202-1.645,7.936c-0.951,9.95,2.132,19.366,8.663,26.52c6.519,7.113,15.598,11.041,25.565,11.041
	c1.072,0,2.146-0.06,3.217-0.152c18.146-1.843,33.109-16.52,34.863-34.94c0.109-1.176,0.171-2.348,0.171-3.512
	c0-0.382-0.025-0.769-0.037-1.146h0.635c0-0.012,0-0.029,0-0.048h63.584c1.815,8.646,5.85,16.594,11.919,23.221
	c9.575,10.49,22.969,16.275,37.676,16.275c1.669,0,3.339-0.097,4.984-0.244c27.002-2.692,49.291-24.525,51.911-51.925
	c0.231-2.412,0.279-4.814,0.194-7.165l17.55-4.288l0.023,0.104l0.596-0.147l4.886,19.299c0.707,2.783,3.426,4.457,6.229,4.032
	l53.471-14.516c2.972-0.776,5.848-4.153,6.396-7.5l6.131-17.498C422.913,269.862,421.17,267.922,418.526,268.311z M131.067,315.572
	c-0.622,6.458-6.592,11.914-13.051,11.914c-0.037,0-0.061-0.012-0.086-0.012c-0.182,0.012-0.364,0.062-0.549,0.062
	c-3.351,0-5.385-1.444-6.482-2.668c-1.595-1.734-2.326-4.16-2.07-6.826c0.609-6.446,6.592-11.897,13.038-11.897
	c0.025,0,0.049,0,0.073,0c0.194,0,0.365-0.06,0.562-0.06c3.352,0,5.385,1.461,6.494,2.667
	C130.58,310.491,131.312,312.916,131.067,315.572z M224.715,278.799c-0.186,0-0.415,0-0.61,0c-0.012,0.012-0.012,0.038-0.024,0.049
	c-24.481,0-92.245,0-111.486,0c-0.146-0.922-0.194-1.238-0.305-2.014c2.681-4.632,5.473-9.428,9.286-15.995c0.194,0,0.414,0,0.61,0
	c0.012-0.017,0.012-0.023,0.023-0.047c14.987,0,70.713,0,74.99,0c6.252-0.128,11.966-3.553,14.929-9.047
	c0,0,25.345-46.959,32.778-60.716c0.208,0,0.389,0,0.597,0c0.012-0.017,0.024-0.036,0.036-0.047c7.896,0,13.49,0,22.836,0
	c2.632,9.961,8.847,33.492,14.404,54.537c-0.219-0.025-0.439-0.012-0.66-0.037c0.014,0.03,0.014,0.054,0.025,0.085
	c-1.876-0.194-3.753-0.297-5.666-0.297c-1.485,0.024-2.937,0.194-4.386,0.328c-1.147,0.09-2.291,0.102-3.4,0.254
	C249.39,248.762,232.842,261.459,224.715,278.799z M294.014,297.437c-1.133,11.843-12.1,21.84-23.97,21.84c-0.023,0-0.049,0-0.073,0
	c-0.194,0-0.364,0.048-0.56,0.048c-5.094,0-9.627-1.879-12.746-5.292c-3.157-3.467-4.632-8.209-4.145-13.37
	c1.134-11.847,12.102-21.839,23.958-21.839c0.013,0,0.05,0.014,0.062,0.014c0.194-0.014,0.377-0.062,0.571-0.062
	c5.095,0,9.627,1.886,12.759,5.294C293.027,287.53,294.501,292.283,294.014,297.437z"/>
<g opacity="0.3">
	<path fill="#FFFFFF" d="M122.502,306.084c-0.196,0-0.367,0.06-0.562,0.06c-0.024,0-0.048,0-0.073,0
		c-6.446,0-12.429,5.451-13.038,11.897c-0.256,2.667,0.476,5.092,2.07,6.826c1.098,1.224,3.132,2.668,6.482,2.668
		c0.185,0,0.367-0.049,0.549-0.062c0.025,0,0.049,0.012,0.086,0.012c6.459,0,12.429-5.456,13.051-11.914
		c0.244-2.656-0.487-5.081-2.071-6.821C127.887,307.545,125.854,306.084,122.502,306.084z"/>
	<path fill="#FFFFFF" d="M272.093,245.598c1.449-0.133,2.9-0.303,4.386-0.328c1.913,0,3.79,0.103,5.666,0.297
		c-0.012-0.031-0.012-0.055-0.025-0.085c0.221,0.025,0.441,0.012,0.66,0.037c-5.558-21.045-11.772-44.576-14.404-54.537
		c-9.346,0-14.94,0-22.836,0c-0.012,0.012-0.024,0.03-0.036,0.047c-0.208,0-0.389,0-0.597,0
		c-7.434,13.757-32.778,60.716-32.778,60.716c-2.963,5.494-8.677,8.919-14.929,9.047c-4.277,0-60.003,0-74.99,0
		c-0.012,0.024-0.012,0.031-0.023,0.047c-0.196,0-0.416,0-0.61,0c-3.813,6.567-6.605,11.363-9.286,15.995
		c0.11,0.776,0.159,1.091,0.305,2.014c19.241,0,87.005,0,111.486,0c0.013-0.012,0.013-0.038,0.024-0.049c0.195,0,0.425,0,0.61,0
		c8.127-17.34,24.675-30.037,43.978-32.947C269.802,245.7,270.945,245.688,272.093,245.598z"/>
	<path fill="#FFFFFF" d="M277.111,278.775c-0.194,0-0.377,0.048-0.571,0.062c-0.012,0-0.049-0.014-0.062-0.014
		c-11.856,0-22.824,9.992-23.958,21.839c-0.487,5.161,0.987,9.903,4.145,13.37c3.119,3.413,7.652,5.292,12.746,5.292
		c0.195,0,0.365-0.048,0.56-0.048c0.024,0,0.05,0,0.073,0c11.87,0,22.837-9.997,23.97-21.84c0.487-5.153-0.986-9.906-4.144-13.367
		C286.738,280.661,282.206,278.775,277.111,278.775z"/>
	<path fill="#FFFFFF" d="M436.469,50H63.529C56.07,50,50,56.056,50,63.523v372.952C50,443.943,56.07,450,63.529,450h372.939
		c7.475,0,13.531-6.057,13.531-13.524V63.523C450,56.056,443.943,50,436.469,50z M422.415,272.985l-6.131,17.498
		c-0.549,3.346-3.425,6.724-6.396,7.5l-53.471,14.516c-2.803,0.425-5.521-1.25-6.229-4.032l-4.886-19.299l-0.596,0.147l-0.023-0.104
		l-17.55,4.288c0.085,2.351,0.037,4.753-0.194,7.165c-2.62,27.4-24.909,49.232-51.911,51.925c-1.646,0.146-3.315,0.244-4.984,0.244
		c-14.707,0-28.101-5.785-37.676-16.275c-6.069-6.627-10.104-14.575-11.919-23.221h-63.584c0,0.019,0,0.036,0,0.048h-0.635
		c0.012,0.377,0.037,0.764,0.037,1.146c0,1.165-0.062,2.336-0.171,3.512c-1.754,18.42-16.717,33.097-34.863,34.94
		c-1.071,0.092-2.145,0.152-3.217,0.152c-9.968,0-19.047-3.928-25.565-11.041c-6.531-7.153-9.614-16.57-8.663-26.52
		c0.266-2.734,0.829-5.389,1.645-7.936c-2.23-2.45-3.779-5.529-4.303-8.987l-3.448-22.699c-0.122-0.856-0.182-1.722-0.182-2.571
		c0-3.026,0.791-6.008,2.327-8.659l17.352-29.842c3.047-5.237,8.615-8.452,14.66-8.584c2.9,0,59.026,0,74.637,0
		c0-0.012,0.012-0.025,0.024-0.042c0.184,0,0.427,0,0.596,0c7.434-13.756,32.769-60.709,32.769-60.709
		c2.974-5.493,8.701-8.919,14.951-9.046h46.316c7.886,0,14.771,5.287,16.78,12.877c0,0,17.244,65.337,23.677,89.698
		c0.122-0.03,0.38-0.097,0.599-0.151c0.012,0.03,0.023,0.078,0.035,0.109c1.598-0.479,13.1-2.935,14.635-3.401l-24.762-98.222
		c-0.754-2.988,1.073-6.039,4.084-6.791l15.719-3.686c2.814-0.413,5.57,1.286,6.275,4.086l31.537,125.062
		c0.757,2.984,3.814,4.784,6.812,4.003l0.037-0.014c0.195-0.036,0.391,0.019,0.598-0.036l41.369-11.72
		C421.17,267.922,422.913,269.862,422.415,272.985z"/>
</g>
<path fill="#FFFFFF" d="M418.526,268.311l-41.369,11.72c-0.207,0.054-0.402,0-0.598,0.036l-0.037,0.014
	c-2.997,0.781-6.055-1.02-6.812-4.003l-31.537-125.062c-0.705-2.801-3.461-4.499-6.275-4.086l-15.719,3.686
	c-3.011,0.751-4.838,3.802-4.084,6.791l24.762,98.222c-1.535,0.467-13.037,2.922-14.635,3.401c-0.012-0.031-0.023-0.079-0.035-0.109
	c-0.219,0.054-0.477,0.121-0.599,0.151c-6.433-24.361-23.677-89.698-23.677-89.698c-2.01-7.59-8.895-12.877-16.78-12.877h-46.316
	c-6.25,0.127-11.978,3.553-14.951,9.046c0,0-25.335,46.953-32.769,60.709c-0.169,0-0.412,0-0.596,0
	c-0.013,0.017-0.024,0.03-0.024,0.042c-15.61,0-71.736,0-74.637,0c-6.045,0.133-11.613,3.347-14.66,8.584L79.827,264.72
	c-1.536,2.651-2.327,5.633-2.327,8.659c0,0.849,0.06,1.715,0.182,2.571l3.448,22.699c0.523,3.458,2.072,6.537,4.303,8.987
	c-0.815,2.547-1.379,5.202-1.645,7.936c-0.951,9.95,2.132,19.366,8.663,26.52c6.519,7.113,15.598,11.041,25.565,11.041
	c1.072,0,2.146-0.06,3.217-0.152c18.146-1.843,33.109-16.52,34.863-34.94c0.109-1.176,0.171-2.348,0.171-3.512
	c0-0.382-0.025-0.769-0.037-1.146h0.635c0-0.012,0-0.029,0-0.048h63.584c1.815,8.646,5.85,16.594,11.919,23.221
	c9.575,10.49,22.969,16.275,37.676,16.275c1.669,0,3.339-0.097,4.984-0.244c27.002-2.692,49.291-24.525,51.911-51.925
	c0.231-2.412,0.279-4.814,0.194-7.165l17.55-4.288l0.023,0.104l0.596-0.147l4.886,19.299c0.707,2.783,3.426,4.457,6.229,4.032
	l53.471-14.516c2.972-0.776,5.848-4.153,6.396-7.5l6.131-17.498C422.913,269.862,421.17,267.922,418.526,268.311z M131.067,315.572
	c-0.622,6.458-6.592,11.914-13.051,11.914c-0.037,0-0.061-0.012-0.086-0.012c-0.182,0.012-0.364,0.062-0.549,0.062
	c-3.351,0-5.385-1.444-6.482-2.668c-1.595-1.734-2.326-4.16-2.07-6.826c0.609-6.446,6.592-11.897,13.038-11.897
	c0.025,0,0.049,0,0.073,0c0.194,0,0.365-0.06,0.562-0.06c3.352,0,5.385,1.461,6.494,2.667
	C130.58,310.491,131.312,312.916,131.067,315.572z M224.715,278.799c-0.186,0-0.415,0-0.61,0c-0.012,0.012-0.012,0.038-0.024,0.049
	c-24.481,0-92.245,0-111.486,0c-0.146-0.922-0.194-1.238-0.305-2.014c2.681-4.632,5.473-9.428,9.286-15.995c0.194,0,0.414,0,0.61,0
	c0.012-0.017,0.012-0.023,0.023-0.047c14.987,0,70.713,0,74.99,0c6.252-0.128,11.966-3.553,14.929-9.047
	c0,0,25.345-46.959,32.778-60.716c0.208,0,0.389,0,0.597,0c0.012-0.017,0.024-0.036,0.036-0.047c7.896,0,13.49,0,22.836,0
	c2.632,9.961,8.847,33.492,14.404,54.537c-0.219-0.025-0.439-0.012-0.66-0.037c0.014,0.03,0.014,0.054,0.025,0.085
	c-1.876-0.194-3.753-0.297-5.666-0.297c-1.485,0.024-2.937,0.194-4.386,0.328c-1.147,0.09-2.291,0.102-3.4,0.254
	C249.39,248.762,232.842,261.459,224.715,278.799z M294.014,297.437c-1.133,11.843-12.1,21.84-23.97,21.84c-0.023,0-0.049,0-0.073,0
	c-0.194,0-0.364,0.048-0.56,0.048c-5.094,0-9.627-1.879-12.746-5.292c-3.157-3.467-4.632-8.209-4.145-13.37
	c1.134-11.847,12.102-21.839,23.958-21.839c0.013,0,0.05,0.014,0.062,0.014c0.194-0.014,0.377-0.062,0.571-0.062
	c5.095,0,9.627,1.886,12.759,5.294C293.027,287.53,294.501,292.283,294.014,297.437z"/>
</svg>
