<?xml version="1.0" encoding="utf-8"?>
<!-- Generator: Adobe Illustrator 16.0.4, SVG Export Plug-In . SVG Version: 6.00 Build 0)  -->
<!DOCTYPE svg PUBLIC "-//W3C//DTD SVG 1.1//EN" "http://www.w3.org/Graphics/SVG/1.1/DTD/svg11.dtd">
<svg version="1.1" id="Calque_1" xmlns="http://www.w3.org/2000/svg" xmlns:xlink="http://www.w3.org/1999/xlink" x="0px" y="0px"
	 width="500px" height="500px" viewBox="0 0 500 500" enable-background="new 0 0 500 500" xml:space="preserve">
<linearGradient id="SVGID_1_" gradientUnits="userSpaceOnUse" x1="250.002" y1="4.882812e-04" x2="250.0019" y2="501.4912">
	<stop  offset="0" style="stop-color:#555555"/>
	<stop  offset="1" style="stop-color:#4C4C4C"/>
</linearGradient>
<rect x="0.002" y="0" fill="url(#SVGID_1_)" width="500" height="501.491"/>
<g>
	<linearGradient id="SVGID_2_" gradientUnits="userSpaceOnUse" x1="145.2812" y1="207.5107" x2="145.2812" y2="292.4941">
		<stop  offset="0" style="stop-color:#FFFFFF"/>
		<stop  offset="1" style="stop-color:#EAEAEA"/>
	</linearGradient>
	<polygon opacity="0.3" fill="url(#SVGID_2_)" points="147.969,250.448 147.969,235.768 142.594,250.448 	"/>
	<linearGradient id="SVGID_3_" gradientUnits="userSpaceOnUse" x1="327.0059" y1="207.5039" x2="327.0059" y2="292.4915">
		<stop  offset="0" style="stop-color:#FFFFFF"/>
		<stop  offset="1" style="stop-color:#EAEAEA"/>
	</linearGradient>
	<path opacity="0.3" fill="url(#SVGID_3_)" d="M327.006,259.135c-4.124,0-7.478,3.359-7.478,7.482c0,4.119,3.354,7.479,7.478,7.479
		c4.122,0,7.477-3.359,7.477-7.479C334.482,262.495,331.128,259.135,327.006,259.135z M327.006,271.889
		c-2.914,0-5.271-2.361-5.271-5.271c0-2.918,2.357-5.273,5.271-5.273c2.913,0,5.271,2.355,5.271,5.273
		C332.276,269.528,329.919,271.889,327.006,271.889z"/>
	<linearGradient id="SVGID_4_" gradientUnits="userSpaceOnUse" x1="355.7471" y1="207.5186" x2="355.7471" y2="292.4823">
		<stop  offset="0" style="stop-color:#FFFFFF"/>
		<stop  offset="1" style="stop-color:#EAEAEA"/>
	</linearGradient>
	<path opacity="0.3" fill="url(#SVGID_4_)" d="M363.842,250.112h-7.24l0.151-1.107c0.098-0.711-0.023-1.273-0.365-1.656
		c-0.463-0.537-1.396-0.822-2.688-0.822c-2.643,0-4.536,2.613-5.637,7.768c-0.631,2.965-0.532,5.143,0.272,6.143
		c0.394,0.482,0.997,0.717,1.843,0.717c2.53,0,4.088-1.004,4.627-3l0.191-0.717h7.35c0.012-1.191,0.145-2.459,0.435-3.803
		C363.048,252.379,363.406,251.211,363.842,250.112z"/>
	<linearGradient id="SVGID_5_" gradientUnits="userSpaceOnUse" x1="250" y1="207.5127" x2="250" y2="292.4863">
		<stop  offset="0" style="stop-color:#FFFFFF"/>
		<stop  offset="1" style="stop-color:#EAEAEA"/>
	</linearGradient>
	<path opacity="0.3" fill="url(#SVGID_5_)" d="M439.313,207.513H60.687c-5.908,0-10.687,4.784-10.687,10.689v63.597
		c0,5.904,4.778,10.688,10.687,10.688h378.627c5.896,0,10.687-4.783,10.687-10.688v-63.597
		C450,212.297,445.21,207.513,439.313,207.513z M109.795,267.418l4.169-27.906l-8.682,27.906H93.005l-0.256-28.387l-4.251,28.387
		H78.05l6.227-41.476h18.32l-0.389,24.025l7.482-24.037h18.412l-6.232,41.488H109.795z M148.67,267.407v-6.502h-9.198l-2.502,6.568
		h-12.852l17.647-41.542h17.167l3.551,41.476H148.67z M182.534,267.418l-3.591-24.744l-3.725,24.805h-10.489l6.256-41.548h15.822
		l3.238,24.421l3.666-24.418h10.738l-6.221,41.485H182.534z M216.318,267.418h-13.623l6.237-41.5h13.617L216.318,267.418z
		 M283.938,238.262l-2.555,17.004c0,0-1.188,12.828-18.06,12.828c-15.764,0-12.914-14.57-12.914-14.57l2.536-17.012h-8.729
		l-4.587,30.945h-13.356l4.6-30.975h-7.05l1.641-10.552h41.597c5.617,0,9.585-0.388,12.869,1.889
		C285.234,231.534,283.938,238.262,283.938,238.262z M298.18,268.079c-14.665,0-13.611-9.131-13.136-12.719l4.401-29.417
		c0,0,11.734,0,13.274,0l-4.17,27.761c-0.145,0.984-0.516,3.426,1.975,3.426c2.491,0,2.856-2.441,3-3.426l4.124-27.761
		c0.823,0,13.218,0.003,13.218,0.003l-4.373,29.459C316.493,255.379,315.561,268.079,298.18,268.079z M327.006,276.051
		c-5.202,0-9.43-4.238-9.43-9.434c0-5.201,4.228-9.432,9.43-9.432c5.2,0,9.435,4.23,9.435,9.432
		C336.44,271.813,332.206,276.051,327.006,276.051z M418.765,267.5h-8.143l3.196-15.043l-7.39,15.043h-7.866l-0.718-15.125
		l-3.22,15.125h-8.144l1.274-5.961c-3.047,4.188-7.761,6.486-13.692,6.486c-4.407,0-7.65-1.246-9.649-3.713
		c-0.619-0.775-1.088-1.674-1.437-2.658c-2.235,4.043-7.182,6.371-13.848,6.371c-3.996,0-6.944-1.145-8.775-3.402
		c-2.031-2.512-2.542-6.219-1.516-11.014c1.894-8.926,7.539-13.883,15.903-13.955c3.394,0,7.912,0.605,10.206,3.49
		c0.643,0.805,1.047,1.723,1.238,2.738c3.047-4.02,7.687-6.229,13.496-6.229c4.406,0,7.656,1.248,9.648,3.719
		c0.729,0.902,1.263,1.967,1.615,3.158l1.35-6.354h12.876l0.394,13.996l6.244-13.996h12.764L418.765,267.5z"/>
	<linearGradient id="SVGID_6_" gradientUnits="userSpaceOnUse" x1="267.0791" y1="207.5176" x2="267.0791" y2="292.4848">
		<stop  offset="0" style="stop-color:#FFFFFF"/>
		<stop  offset="1" style="stop-color:#EAEAEA"/>
	</linearGradient>
	<path opacity="0.3" fill="url(#SVGID_6_)" d="M268.624,236.477c-2.491,0-2.821,2.156-3.007,3.43l-2.072,13.797
		c-0.151,0.984-0.516,3.426,1.974,3.426c2.484,0,2.856-2.441,3-3.426l2.08-13.797C270.784,238.633,271.108,236.477,268.624,236.477z
		"/>
	<linearGradient id="SVGID_7_" gradientUnits="userSpaceOnUse" x1="376.8643" y1="207.5186" x2="376.8643" y2="292.4823">
		<stop  offset="0" style="stop-color:#FFFFFF"/>
		<stop  offset="1" style="stop-color:#EAEAEA"/>
	</linearGradient>
	<path opacity="0.3" fill="url(#SVGID_7_)" d="M375.106,261.153c3.301,0,5.508-2.486,6.55-7.404
		c0.638-2.982,0.499-5.131-0.382-6.227c-0.545-0.672-1.407-0.996-2.635-0.996c-3.343,0-5.502,2.494-6.592,7.629
		c-0.607,2.838-0.469,4.916,0.411,6C373.003,260.829,373.873,261.153,375.106,261.153z"/>
	<polygon fill="#FFFFFF" points="109.69,225.931 102.208,249.967 102.597,225.942 84.276,225.942 78.05,267.418 88.498,267.418 
		92.749,239.032 93.005,267.418 105.282,267.418 113.964,239.512 109.795,267.418 121.87,267.418 128.103,225.931 	"/>
	<path fill="#FFFFFF" d="M141.766,225.931l-17.647,41.542h12.852l2.502-6.568h9.198v6.502h13.813l-3.551-41.476H141.766z
		 M147.969,250.448h-5.375l5.375-14.68V250.448z"/>
	<polygon fill="#FFFFFF" points="193.712,225.934 190.046,250.352 186.808,225.931 170.985,225.931 164.729,267.479 
		175.219,267.479 178.943,242.674 182.534,267.418 198.229,267.418 204.45,225.934 	"/>
	<polygon fill="#FFFFFF" points="202.695,267.418 216.318,267.418 222.55,225.919 208.933,225.919 	"/>
	<path fill="#FFFFFF" d="M307.648,225.942l-4.124,27.761c-0.144,0.984-0.509,3.426-3,3.426c-2.49,0-2.119-2.441-1.975-3.426
		l4.17-27.761c-1.54,0-13.274,0-13.274,0l-4.401,29.417c-0.476,3.588-1.529,12.719,13.136,12.719
		c17.381,0,18.313-12.699,18.313-12.674l4.373-29.459C320.866,225.945,308.472,225.942,307.648,225.942z"/>
	<path fill="#FFFFFF" d="M279.93,227.819c-3.284-2.276-7.252-1.889-12.869-1.889h-41.597l-1.641,10.552h7.05l-4.6,30.975h13.356
		l4.587-30.945h8.729l-2.536,17.012c0,0-2.85,14.57,12.914,14.57c16.872,0,18.06-12.828,18.06-12.828l2.555-17.004
		C283.938,238.262,285.234,231.534,279.93,227.819z M270.599,239.907l-2.08,13.797c-0.144,0.984-0.516,3.426-3,3.426
		c-2.489,0-2.125-2.441-1.974-3.426l2.072-13.797c0.186-1.273,0.516-3.43,3.007-3.43
		C271.108,236.477,270.784,238.633,270.599,239.907z"/>
	<path fill="#FFFFFF" d="M405.565,254.174l-0.394-13.996h-12.876l-1.35,6.354c-0.353-1.191-0.886-2.256-1.615-3.158
		c-1.992-2.471-5.242-3.719-9.648-3.719c-5.81,0-10.449,2.209-13.496,6.229c-0.191-1.016-0.596-1.934-1.238-2.738
		c-2.294-2.885-6.812-3.49-10.206-3.49c-8.364,0.072-14.01,5.029-15.903,13.955c-1.026,4.795-0.516,8.502,1.516,11.014
		c1.831,2.258,4.779,3.402,8.775,3.402c6.666,0,11.612-2.328,13.848-6.371c0.349,0.984,0.817,1.883,1.437,2.658
		c1.999,2.467,5.242,3.713,9.649,3.713c5.932,0,10.646-2.299,13.692-6.486l-1.274,5.961h8.144l3.22-15.125l0.718,15.125h7.866
		l7.39-15.043l-3.196,15.043h8.143l5.809-27.322H411.81L405.565,254.174z M372.048,254.155c1.09-5.135,3.249-7.629,6.592-7.629
		c1.228,0,2.09,0.324,2.635,0.996c0.881,1.096,1.02,3.244,0.382,6.227c-1.042,4.918-3.249,7.404-6.55,7.404
		c-1.233,0-2.104-0.324-2.647-0.998C371.579,259.071,371.44,256.993,372.048,254.155z M354.997,257.436l-0.191,0.717
		c-0.539,1.996-2.097,3-4.627,3c-0.846,0-1.449-0.234-1.843-0.717c-0.805-1-0.903-3.178-0.272-6.143
		c1.101-5.154,2.994-7.768,5.637-7.768c1.291,0,2.225,0.285,2.688,0.822c0.342,0.383,0.463,0.945,0.365,1.656l-0.151,1.107h7.24
		c-0.436,1.1-0.794,2.268-1.061,3.521c-0.29,1.344-0.423,2.611-0.435,3.803H354.997z"/>
	<path fill="#FFFFFF" d="M327.006,257.186c-5.202,0-9.43,4.23-9.43,9.432c0,5.195,4.228,9.434,9.43,9.434
		c5.2,0,9.435-4.238,9.435-9.434C336.44,261.417,332.206,257.186,327.006,257.186z M327.006,274.096
		c-4.124,0-7.478-3.359-7.478-7.479c0-4.123,3.354-7.482,7.478-7.482c4.122,0,7.477,3.359,7.477,7.482
		C334.482,270.737,331.128,274.096,327.006,274.096z"/>
	<path fill="#FFFFFF" d="M327.006,261.344c-2.914,0-5.271,2.355-5.271,5.273c0,2.91,2.357,5.271,5.271,5.271
		c2.913,0,5.271-2.361,5.271-5.271C332.276,263.7,329.919,261.344,327.006,261.344z"/>
</g>
</svg>
