<?xml version="1.0" encoding="utf-8"?>
<!-- Generator: Adobe Illustrator 16.0.4, SVG Export Plug-In . SVG Version: 6.00 Build 0)  -->
<!DOCTYPE svg PUBLIC "-//W3C//DTD SVG 1.1//EN" "http://www.w3.org/Graphics/SVG/1.1/DTD/svg11.dtd">
<svg version="1.1" id="Calque_1" xmlns="http://www.w3.org/2000/svg" xmlns:xlink="http://www.w3.org/1999/xlink" x="0px" y="0px"
	 width="500px" height="250px" viewBox="0 0 500 250" enable-background="new 0 0 500 250" xml:space="preserve">
<linearGradient id="SVGID_1_" gradientUnits="userSpaceOnUse" x1="250" y1="0" x2="250" y2="250">
	<stop  offset="0" style="stop-color:#E2001A"/>
	<stop  offset="1" style="stop-color:#C20016"/>
</linearGradient>
<rect fill="url(#SVGID_1_)" width="500" height="250"/>
<g>
	<polygon fill="#FFFFFF" points="75,155.244 90.065,155.244 96.189,114.272 96.555,155.244 114.25,155.244 126.773,114.965 
		120.748,155.244 138.153,155.244 147.161,95.392 120.617,95.392 109.825,130.023 110.383,95.396 83.974,95.396 	"/>
	<path fill="#FFFFFF" d="M196.711,155.244l-5.118-59.86h-24.746l-25.444,59.874h18.529l3.599-9.483h13.267v9.47H196.711z
		 M175.783,130.705h-7.74l7.74-21.163V130.705z"/>
	<polygon fill="#FFFFFF" points="199.944,155.235 215.058,155.235 220.429,119.497 225.596,155.239 248.212,155.239 257.211,95.384 
		241.72,95.384 236.435,130.572 231.773,95.38 208.958,95.38 	"/>
	<polygon fill="#FFFFFF" points="254.669,155.244 274.299,155.244 283.296,95.38 263.667,95.38 	"/>
	<path fill="#FFFFFF" d="M425,95.388l-6.305,42.472c0-0.046-1.343,18.248-26.396,18.248c-21.148,0-19.613-13.149-18.937-18.327
		l6.35-42.397c0,0,16.91-0.004,19.134-0.004l-6.01,40.016c-0.214,1.425-0.741,4.931,2.851,4.931c3.585,0,4.111-3.506,4.322-4.931
		l5.945-40.016C407.136,95.38,425,95.388,425,95.388z"/>
	<path fill="#FFFFFF" d="M365.984,98.102c-4.719-3.284-10.442-2.718-18.539-2.718h-59.956l-2.373,15.193h10.175l-6.632,44.658
		h19.241l6.619-44.615h12.588l-3.668,24.522c0,0-4.107,21.003,18.614,21.003c24.329,0,26.032-18.49,26.032-18.49l3.689-24.501
		C371.774,113.154,373.64,103.455,365.984,98.102z M349.554,135.403c-0.213,1.43-0.742,4.936-4.328,4.936
		c-3.586,0-3.058-3.506-2.848-4.936l2.991-19.885c0.27-1.836,0.743-4.949,4.332-4.949c3.586,0,3.11,3.113,2.84,4.949
		L349.554,135.403z"/>
</g>
</svg>
