<?xml version="1.0" encoding="utf-8"?>
<!-- Generator: Adobe Illustrator 16.0.4, SVG Export Plug-In . SVG Version: 6.00 Build 0)  -->
<!DOCTYPE svg PUBLIC "-//W3C//DTD SVG 1.1//EN" "http://www.w3.org/Graphics/SVG/1.1/DTD/svg11.dtd">
<svg version="1.1" id="Calque_1" xmlns="http://www.w3.org/2000/svg" xmlns:xlink="http://www.w3.org/1999/xlink" x="0px" y="0px"
	 width="500px" height="250px" viewBox="0 0 500 250" enable-background="new 0 0 500 250" xml:space="preserve">
<linearGradient id="SVGID_1_" gradientUnits="userSpaceOnUse" x1="249.9995" y1="0.7456" x2="249.9995" y2="250.7466">
	<stop  offset="0" style="stop-color:#555555"/>
	<stop  offset="1" style="stop-color:#4C4C4C"/>
</linearGradient>
<rect x="0" y="0.746" fill="url(#SVGID_1_)" width="500" height="250"/>
<g>
	<g>
		<polygon fill="#FFFFFF" points="75,133.57 89.982,133.57 96.072,92.825 96.435,133.57 114.033,133.57 126.486,93.514 
			120.494,133.57 137.803,133.57 146.761,74.049 120.364,74.049 109.632,108.489 110.187,74.054 83.924,74.054 		"/>
		<path fill="#FFFFFF" d="M196.037,133.57l-5.089-59.529h-24.609l-25.304,59.543h18.427l3.579-9.431h13.193v9.417H196.037z
			 M175.225,109.168h-7.697l7.697-21.047V109.168z"/>
		<polygon fill="#FFFFFF" points="199.252,133.562 214.282,133.562 219.624,98.021 224.762,133.565 247.252,133.565 256.202,74.041 
			240.796,74.041 235.541,109.035 230.905,74.037 208.217,74.037 		"/>
		<polygon fill="#FFFFFF" points="253.674,133.57 273.195,133.57 282.142,74.037 262.622,74.037 		"/>
		<path fill="#FFFFFF" d="M423.062,74.045l-6.27,42.238c0-0.046-1.336,18.146-26.25,18.146c-21.031,0-19.504-13.076-18.832-18.226
			l6.314-42.163c0,0,16.816-0.004,19.027-0.004l-5.977,39.795c-0.213,1.416-0.738,4.902,2.834,4.902c3.566,0,4.09-3.486,4.299-4.902
			l5.912-39.795C405.298,74.037,423.062,74.045,423.062,74.045z"/>
		<path fill="#FFFFFF" d="M364.374,76.745c-4.693-3.266-10.386-2.704-18.438-2.704h-59.624l-2.36,15.109h10.118l-6.595,44.411
			h19.134l6.583-44.368h12.519l-3.647,24.387c0,0-4.084,20.887,18.511,20.887c24.195,0,25.888-18.388,25.888-18.388l3.668-24.366
			C370.13,91.713,371.987,82.067,364.374,76.745z M348.033,113.84c-0.211,1.422-0.736,4.908-4.303,4.908
			c-3.567,0-3.041-3.486-2.833-4.908l2.975-19.775c0.269-1.826,0.738-4.922,4.308-4.922c3.566,0,3.093,3.096,2.825,4.922
			L348.033,113.84z"/>
	</g>
	<g>
		<path fill="#FFFFFF" d="M139.652,164.778c1.51-7.101,6.413-11.217,13.543-11.217c7.13,0,10.282,4.116,8.772,11.217
			c-1.509,7.101-6.412,11.218-13.542,11.218S138.142,171.879,139.652,164.778z M152.307,157.738c-4.058,0-5.692,3.759-6.409,7.129
			c-0.679,3.193-0.643,6.951,3.415,6.951s5.692-3.758,6.371-6.951C156.4,161.497,156.364,157.738,152.307,157.738z"/>
		<path fill="#FFFFFF" d="M169.016,175.548h-5.967l4.58-21.539h15.245l-0.888,4.177h-9.278l-1.066,5.012h8.622l-0.888,4.177h-8.622
			L169.016,175.548z"/>
		<path fill="#FFFFFF" d="M187.244,175.548h-5.967l4.58-21.539h15.245l-0.888,4.177h-9.278l-1.066,5.012h8.622l-0.888,4.177h-8.622
			L187.244,175.548z"/>
		<path fill="#FFFFFF" d="M199.386,175.548l4.58-21.539h5.967l-4.58,21.539H199.386z"/>
		<path fill="#FFFFFF" d="M226.153,160.781c0.263-1.939-0.964-3.043-3.41-3.043c-3.431,0-4.914,4.027-5.599,7.249
			c-0.666,3.132-0.766,6.831,2.604,6.831c2.506,0,4.173-1.104,4.73-3.162h6.265c-1.065,5.43-6.662,7.34-11.882,7.34
			c-6.712,0-9.466-4.027-7.931-11.248c1.535-7.219,5.976-11.127,12.701-11.187c5.22,0,10.031,1.79,8.787,7.22H226.153z"/>
		<path fill="#FFFFFF" d="M232.531,175.548l4.58-21.539h5.967l-4.58,21.539H232.531z"/>
		<path fill="#FFFFFF" d="M240.765,175.548l13.082-21.539h7.279l3.923,21.539h-6.742l-0.538-4.206h-8.741l-2.296,4.206H240.765z
			 M257.195,167.165l-0.842-8.95h-0.09l-4.826,8.95H257.195z"/>
		<path fill="#FFFFFF" d="M267.316,175.548l4.58-21.539h5.967l-3.691,17.362h9.755l-0.888,4.177H267.316z"/>
		<path fill="#FFFFFF" d="M309.158,154.009c7.398,0,11.665,2.804,9.972,10.77c-1.693,7.966-7.153,10.77-14.551,10.77h-9.099
			l4.58-21.539H309.158z M302.334,171.371h2.804c3.251,0,6.781-2.148,7.726-6.593s-1.671-6.593-4.923-6.593h-2.804L302.334,171.371z
			"/>
		<path fill="#FFFFFF" d="M320.391,175.548l4.579-21.539h16.408l-0.888,4.177h-10.441l-0.946,4.445h9.607l-0.889,4.176h-9.606
			l-0.97,4.564h10.441l-0.888,4.177H320.391z"/>
		<path fill="#FFFFFF" d="M338.53,175.548l13.083-21.539h7.279l3.922,21.539h-6.742l-0.538-4.206h-8.74l-2.297,4.206H338.53z
			 M354.959,167.165l-0.841-8.95h-0.09l-4.826,8.95H354.959z"/>
		<path fill="#FFFFFF" d="M365.081,175.548l4.58-21.539h5.967l-3.691,17.362h9.756l-0.889,4.177H365.081z"/>
		<path fill="#FFFFFF" d="M383.37,175.548l4.58-21.539h16.406l-0.887,4.177h-10.441l-0.945,4.445h9.607l-0.889,4.176h-9.605
			l-0.971,4.564h10.439l-0.887,4.177H383.37z"/>
		<path fill="#FFFFFF" d="M409.116,175.548h-5.967l4.58-21.539h9.963c3.641,0,8.145,0.985,7.174,5.55
			c-0.686,3.221-3.521,4.922-6.611,5.279l-0.025,0.119c3.801,0.09,4.104,2.029,3.781,5.37c-0.232,1.79-0.266,3.491-0.127,5.221
			h-6.473c-0.012-1.491,0.141-3.043,0.314-4.564c0.312-2.595,0.422-3.669-2.621-3.669h-2.238L409.116,175.548z M414.083,163.138
			c1.908,0,3.814-0.269,4.283-2.476c0.471-2.209-1.322-2.477-3.23-2.477h-2.328l-1.053,4.952H414.083z"/>
	</g>
</g>
</svg>
