<?xml version="1.0" encoding="utf-8"?>
<!-- Generator: Adobe Illustrator 16.0.4, SVG Export Plug-In . SVG Version: 6.00 Build 0)  -->
<!DOCTYPE svg PUBLIC "-//W3C//DTD SVG 1.1//EN" "http://www.w3.org/Graphics/SVG/1.1/DTD/svg11.dtd">
<svg version="1.1" id="Calque_1" xmlns="http://www.w3.org/2000/svg" xmlns:xlink="http://www.w3.org/1999/xlink" x="0px" y="0px"
	 width="500px" height="250px" viewBox="0 0 500 250" enable-background="new 0 0 500 250" xml:space="preserve">
<rect fill="#FFFFFF" width="500" height="250"/>
<g>
	<g>
		<linearGradient id="SVGID_1_" gradientUnits="userSpaceOnUse" x1="110.8804" y1="74.0493" x2="110.8804" y2="133.5698">
			<stop  offset="0" style="stop-color:#B3B3B3"/>
			<stop  offset="1" style="stop-color:#999999"/>
		</linearGradient>
		<polygon fill="url(#SVGID_1_)" points="75,133.57 89.982,133.57 96.072,92.825 96.435,133.57 114.033,133.57 126.486,93.514 
			120.494,133.57 137.803,133.57 146.761,74.049 120.364,74.049 109.632,108.489 110.187,74.054 83.924,74.054 		"/>
		<linearGradient id="SVGID_2_" gradientUnits="userSpaceOnUse" x1="168.5361" y1="74.041" x2="168.5361" y2="133.5835">
			<stop  offset="0" style="stop-color:#B3B3B3"/>
			<stop  offset="1" style="stop-color:#999999"/>
		</linearGradient>
		<path fill="url(#SVGID_2_)" d="M196.037,133.57l-5.089-59.529h-24.609l-25.303,59.542h18.426l3.579-9.431h13.193v9.417H196.037z
			 M175.224,109.167h-7.697l7.697-21.046V109.167z"/>
		<linearGradient id="SVGID_3_" gradientUnits="userSpaceOnUse" x1="227.7266" y1="74.0371" x2="227.7266" y2="133.5649">
			<stop  offset="0" style="stop-color:#B3B3B3"/>
			<stop  offset="1" style="stop-color:#999999"/>
		</linearGradient>
		<polygon fill="url(#SVGID_3_)" points="199.252,133.561 214.282,133.561 219.624,98.021 224.761,133.565 247.252,133.565 
			256.201,74.041 240.796,74.041 235.54,109.035 230.905,74.037 208.216,74.037 		"/>
		<linearGradient id="SVGID_4_" gradientUnits="userSpaceOnUse" x1="267.9077" y1="74.0371" x2="267.9077" y2="133.5698">
			<stop  offset="0" style="stop-color:#B3B3B3"/>
			<stop  offset="1" style="stop-color:#999999"/>
		</linearGradient>
		<polygon fill="url(#SVGID_4_)" points="253.674,133.57 273.194,133.57 282.142,74.037 262.622,74.037 		"/>
		<linearGradient id="SVGID_5_" gradientUnits="userSpaceOnUse" x1="397.2251" y1="74.0371" x2="397.2251" y2="134.4292">
			<stop  offset="0" style="stop-color:#B3B3B3"/>
			<stop  offset="1" style="stop-color:#999999"/>
		</linearGradient>
		<path fill="url(#SVGID_5_)" d="M423.061,74.045l-6.271,42.237c0-0.045-1.335,18.147-26.25,18.147
			c-21.031,0-19.504-13.076-18.832-18.226l6.314-42.163c0,0,16.816-0.004,19.028-0.004l-5.978,39.794
			c-0.213,1.417-0.737,4.903,2.835,4.903c3.565,0,4.089-3.486,4.298-4.903l5.912-39.794
			C405.296,74.037,423.061,74.045,423.061,74.045z"/>
		<linearGradient id="SVGID_6_" gradientUnits="userSpaceOnUse" x1="327.1396" y1="74.0039" x2="327.1396" y2="134.4663">
			<stop  offset="0" style="stop-color:#B3B3B3"/>
			<stop  offset="1" style="stop-color:#999999"/>
		</linearGradient>
		<path fill="url(#SVGID_6_)" d="M364.373,76.745c-4.693-3.266-10.386-2.704-18.438-2.704h-59.624l-2.36,15.109h10.118
			l-6.595,44.411h19.134l6.583-44.368h12.519l-3.647,24.386c0,0-4.084,20.887,18.511,20.887c24.194,0,25.887-18.388,25.887-18.388
			l3.669-24.365C370.129,91.713,371.986,82.067,364.373,76.745z M348.032,113.839c-0.212,1.422-0.737,4.908-4.303,4.908
			c-3.567,0-3.041-3.486-2.833-4.908l2.974-19.774c0.268-1.826,0.738-4.922,4.308-4.922c3.566,0,3.092,3.096,2.825,4.922
			L348.032,113.839z"/>
	</g>
	<g>
		<path fill="#999999" d="M139.652,164.778c1.51-7.1,6.413-11.217,13.542-11.217s10.282,4.117,8.772,11.217
			c-1.509,7.1-6.412,11.217-13.542,11.217C141.294,175.995,138.142,171.878,139.652,164.778z M152.307,157.737
			c-4.058,0-5.692,3.759-6.409,7.13c-0.679,3.192-0.643,6.951,3.415,6.951s5.692-3.759,6.371-6.951
			C156.4,161.497,156.363,157.737,152.307,157.737z"/>
		<path fill="#999999" d="M169.016,175.547h-5.967l4.58-21.539h15.245l-0.888,4.176h-9.278l-1.066,5.012h8.622l-0.888,4.177h-8.622
			L169.016,175.547z"/>
		<path fill="#999999" d="M187.244,175.547h-5.967l4.58-21.539h15.245l-0.888,4.176h-9.278l-1.066,5.012h8.622l-0.888,4.177h-8.622
			L187.244,175.547z"/>
		<path fill="#999999" d="M199.385,175.547l4.58-21.539h5.967l-4.58,21.539H199.385z"/>
		<path fill="#999999" d="M226.153,160.78c0.263-1.939-0.964-3.043-3.41-3.043c-3.431,0-4.914,4.027-5.599,7.25
			c-0.666,3.132-0.766,6.832,2.604,6.832c2.506,0,4.173-1.104,4.73-3.162h6.265c-1.065,5.43-6.662,7.339-11.882,7.339
			c-6.712,0-9.466-4.027-7.931-11.247c1.535-7.219,5.976-11.128,12.701-11.187c5.22,0,10.031,1.79,8.787,7.219H226.153z"/>
		<path fill="#999999" d="M232.53,175.547l4.58-21.539h5.967l-4.58,21.539H232.53z"/>
		<path fill="#999999" d="M240.764,175.547l13.082-21.539h7.279l3.923,21.539h-6.742l-0.538-4.207h-8.741l-2.296,4.207H240.764z
			 M257.195,167.165l-0.842-8.95h-0.09l-4.826,8.95H257.195z"/>
		<path fill="#999999" d="M267.316,175.547l4.58-21.539h5.967l-3.691,17.363h9.755l-0.888,4.176H267.316z"/>
		<path fill="#999999" d="M309.157,154.008c7.398,0,11.665,2.804,9.972,10.77c-1.693,7.965-7.153,10.77-14.551,10.77h-9.099
			l4.58-21.539H309.157z M302.333,171.371h2.804c3.251,0,6.781-2.148,7.726-6.593s-1.671-6.593-4.923-6.593h-2.804L302.333,171.371z
			"/>
		<path fill="#999999" d="M320.391,175.547l4.579-21.539h16.407l-0.887,4.176h-10.441l-0.946,4.446h9.607l-0.889,4.176h-9.605
			l-0.97,4.564h10.441l-0.888,4.176H320.391z"/>
		<path fill="#999999" d="M338.529,175.547l13.083-21.539h7.279l3.922,21.539h-6.741l-0.538-4.207h-8.74l-2.297,4.207H338.529z
			 M354.958,167.165l-0.841-8.95h-0.09l-4.826,8.95H354.958z"/>
		<path fill="#999999" d="M365.081,175.547l4.58-21.539h5.966l-3.691,17.363h9.756l-0.888,4.176H365.081z"/>
		<path fill="#999999" d="M383.37,175.547l4.579-21.539h16.407l-0.888,4.176h-10.44l-0.946,4.446h9.607l-0.889,4.176h-9.605
			l-0.971,4.564h10.44l-0.887,4.176H383.37z"/>
		<path fill="#999999" d="M409.115,175.547h-5.966l4.579-21.539h9.964c3.641,0,8.145,0.985,7.174,5.549
			c-0.686,3.222-3.522,4.922-6.612,5.28l-0.025,0.12c3.801,0.089,4.104,2.028,3.781,5.37c-0.231,1.79-0.265,3.491-0.126,5.221
			h-6.474c-0.011-1.492,0.141-3.043,0.315-4.564c0.312-2.595,0.421-3.669-2.622-3.669h-2.237L409.115,175.547z M414.082,163.137
			c1.909,0,3.815-0.269,4.284-2.476c0.471-2.208-1.322-2.477-3.231-2.477h-2.327l-1.054,4.953H414.082z"/>
	</g>
</g>
</svg>
