<?xml version="1.0" encoding="utf-8"?>
<!-- Generator: Adobe Illustrator 16.0.4, SVG Export Plug-In . SVG Version: 6.00 Build 0)  -->
<!DOCTYPE svg PUBLIC "-//W3C//DTD SVG 1.1//EN" "http://www.w3.org/Graphics/SVG/1.1/DTD/svg11.dtd">
<svg version="1.1" id="Calque_1" xmlns="http://www.w3.org/2000/svg" xmlns:xlink="http://www.w3.org/1999/xlink" x="0px" y="0px"
	 width="500px" height="250px" viewBox="0 0 500 250" enable-background="new 0 0 500 250" xml:space="preserve">
<linearGradient id="SVGID_1_" gradientUnits="userSpaceOnUse" x1="250" y1="0" x2="250" y2="250">
	<stop  offset="0" style="stop-color:#B3B3B3"/>
	<stop  offset="1" style="stop-color:#999999"/>
</linearGradient>
<rect x="-0.001" fill="url(#SVGID_1_)" width="500.002" height="250"/>
<g>
	<polygon fill="#FFFFFF" points="75,154.498 90.065,154.498 96.189,113.526 96.555,154.498 114.25,154.498 126.773,114.219 
		120.748,154.498 138.153,154.498 147.161,94.646 120.617,94.646 109.825,129.277 110.383,94.65 83.974,94.65 	"/>
	<path fill="#FFFFFF" d="M196.711,154.498l-5.118-59.86h-24.746l-25.444,59.874h18.529l3.599-9.483h13.267v9.47H196.711z
		 M175.783,129.959h-7.74l7.74-21.163V129.959z"/>
	<polygon fill="#FFFFFF" points="199.944,154.489 215.058,154.489 220.429,118.751 225.596,154.493 248.212,154.493 257.211,94.638 
		241.72,94.638 236.435,129.826 231.773,94.634 208.958,94.634 	"/>
	<polygon fill="#FFFFFF" points="254.669,154.498 274.299,154.498 283.296,94.634 263.667,94.634 	"/>
	<path fill="#FFFFFF" d="M425,94.642l-6.305,42.472c0-0.046-1.343,18.248-26.396,18.248c-21.148,0-19.613-13.149-18.937-18.327
		l6.35-42.397c0,0,16.91-0.004,19.134-0.004l-6.01,40.016c-0.214,1.425-0.741,4.931,2.851,4.931c3.585,0,4.111-3.506,4.322-4.931
		l5.945-40.016C407.136,94.634,425,94.642,425,94.642z"/>
	<path fill="#FFFFFF" d="M365.984,97.356c-4.719-3.284-10.442-2.718-18.539-2.718h-59.956l-2.373,15.193h10.175l-6.632,44.658
		h19.241l6.619-44.615h12.588l-3.668,24.522c0,0-4.107,21.003,18.614,21.003c24.329,0,26.032-18.49,26.032-18.49l3.689-24.501
		C371.774,112.408,373.64,102.708,365.984,97.356z M349.554,134.657c-0.213,1.43-0.742,4.936-4.328,4.936
		c-3.586,0-3.058-3.506-2.848-4.936l2.991-19.885c0.27-1.836,0.743-4.949,4.332-4.949c3.586,0,3.11,3.113,2.84,4.949
		L349.554,134.657z"/>
</g>
</svg>
