<?xml version="1.0" encoding="utf-8"?>
<!-- Generator: Adobe Illustrator 16.0.4, SVG Export Plug-In . SVG Version: 6.00 Build 0)  -->
<!DOCTYPE svg PUBLIC "-//W3C//DTD SVG 1.1//EN" "http://www.w3.org/Graphics/SVG/1.1/DTD/svg11.dtd">
<svg version="1.1" id="Calque_1" xmlns="http://www.w3.org/2000/svg" xmlns:xlink="http://www.w3.org/1999/xlink" x="0px" y="0px"
	 width="500px" height="500px" viewBox="0 0 500 500" enable-background="new 0 0 500 500" xml:space="preserve">
<linearGradient id="SVGID_1_" gradientUnits="userSpaceOnUse" x1="250" y1="2.5" x2="250" y2="497.5">
	<stop  offset="0" style="stop-color:#555555"/>
	<stop  offset="1" style="stop-color:#4C4C4C"/>
</linearGradient>
<circle fill="url(#SVGID_1_)" cx="250" cy="250" r="247.5"/>
<g>
	<polygon fill="#FFFFFF" points="50,287.925 67.217,287.925 74.217,235.248 74.634,287.925 94.857,287.925 109.169,236.138 
		102.283,287.925 122.175,287.925 132.469,210.973 102.133,210.973 89.799,255.499 90.437,210.979 60.256,210.979 	"/>
	<path fill="#FFFFFF" d="M189.098,287.925l-5.849-76.963h-28.282l-29.079,76.98h21.176l4.113-12.192h15.163v12.175H189.098z
		 M165.18,256.375h-8.846l8.846-27.21V256.375z"/>
	<polygon fill="#FFFFFF" points="192.793,287.915 210.066,287.915 216.205,241.965 222.109,287.919 247.957,287.919 
		258.241,210.962 240.537,210.962 234.497,256.205 229.17,210.958 203.096,210.958 	"/>
	<polygon fill="#FFFFFF" points="255.336,287.925 277.77,287.925 288.053,210.958 265.619,210.958 	"/>
	<path fill="#FFFFFF" d="M450,210.968l-7.205,54.607c0-0.059-1.535,23.462-30.167,23.462c-24.169,0-22.415-16.906-21.643-23.563
		l7.257-54.511c0,0,19.326-0.005,21.867-0.005l-6.869,51.448c-0.244,1.832-0.847,6.34,3.258,6.34c4.097,0,4.699-4.508,4.939-6.34
		l6.794-51.448C429.584,210.958,450,210.968,450,210.968z"/>
	<path fill="#FFFFFF" d="M382.553,214.457c-5.393-4.222-11.934-3.495-21.188-3.495h-68.521l-2.712,19.534h11.628l-7.579,57.418
		h21.989l7.565-57.363h14.387l-4.193,31.529c0,0-4.694,27.004,21.273,27.004c27.805,0,29.75-23.773,29.75-23.773l4.216-31.501
		C389.17,233.81,391.303,221.339,382.553,214.457z M363.775,262.416c-0.244,1.839-0.848,6.346-4.945,6.346
		c-4.099,0-3.495-4.507-3.255-6.346l3.418-25.565c0.308-2.361,0.849-6.364,4.951-6.364c4.099,0,3.555,4.002,3.246,6.364
		L363.775,262.416z"/>
</g>
</svg>
