<?xml version="1.0" encoding="utf-8"?>
<!-- Generator: Adobe Illustrator 16.0.4, SVG Export Plug-In . SVG Version: 6.00 Build 0)  -->
<!DOCTYPE svg PUBLIC "-//W3C//DTD SVG 1.1//EN" "http://www.w3.org/Graphics/SVG/1.1/DTD/svg11.dtd">
<svg version="1.1" id="Calque_1" xmlns="http://www.w3.org/2000/svg" xmlns:xlink="http://www.w3.org/1999/xlink" x="0px" y="0px"
	 width="500px" height="500px" viewBox="0 0 500 500" enable-background="new 0 0 500 500" xml:space="preserve">
<linearGradient id="SVGID_1_" gradientUnits="userSpaceOnUse" x1="250" y1="2.5" x2="250" y2="497.5">
	<stop  offset="0" style="stop-color:#555555"/>
	<stop  offset="1" style="stop-color:#4C4C4C"/>
</linearGradient>
<circle fill="url(#SVGID_1_)" cx="250" cy="250" r="247.5"/>
<g>
	<g>
		<polygon fill="#FFFFFF" points="75,258.57 89.982,258.57 96.072,217.825 96.436,258.57 114.032,258.57 126.485,218.514 
			120.493,258.57 137.803,258.57 146.761,199.049 120.363,199.049 109.631,233.489 110.187,199.054 83.925,199.054 		"/>
		<path fill="#FFFFFF" d="M196.036,258.57l-5.089-59.529h-24.608l-25.305,59.542h18.428l3.578-9.431h13.193v9.417H196.036z
			 M175.224,234.167h-7.697l7.697-21.046V234.167z"/>
		<polygon fill="#FFFFFF" points="199.252,258.561 214.281,258.561 219.624,223.021 224.761,258.565 247.252,258.565 
			256.201,199.041 240.796,199.041 235.54,234.035 230.905,199.037 208.216,199.037 		"/>
		<polygon fill="#FFFFFF" points="253.674,258.57 273.194,258.57 282.142,199.037 262.622,199.037 		"/>
		<path fill="#FFFFFF" d="M423.061,199.045l-6.27,42.237c0-0.046-1.336,18.146-26.25,18.146c-21.029,0-19.503-13.076-18.831-18.226
			l6.315-42.163c0,0,16.814-0.004,19.025-0.004l-5.976,39.794c-0.214,1.416-0.738,4.902,2.833,4.902c3.567,0,4.09-3.486,4.3-4.902
			l5.911-39.794C405.297,199.037,423.061,199.045,423.061,199.045z"/>
		<path fill="#FFFFFF" d="M364.375,201.745c-4.694-3.266-10.388-2.704-18.439-2.704h-59.624l-2.359,15.109h10.117l-6.595,44.411
			h19.135l6.582-44.368h12.521l-3.649,24.386c0,0-4.085,20.887,18.511,20.887c24.195,0,25.89-18.388,25.89-18.388l3.669-24.365
			C370.132,216.713,371.987,207.067,364.375,201.745z M348.032,238.839c-0.211,1.422-0.735,4.908-4.303,4.908
			s-3.041-3.486-2.833-4.908l2.976-19.775c0.268-1.826,0.737-4.922,4.307-4.922c3.567,0,3.093,3.096,2.826,4.922L348.032,238.839z"
			/>
	</g>
	<g>
		<path fill="#FFFFFF" d="M139.651,289.778c1.51-7.101,6.412-11.217,13.543-11.217c7.13,0,10.282,4.116,8.771,11.217
			c-1.508,7.101-6.411,11.218-13.541,11.218C141.294,300.996,138.142,296.878,139.651,289.778z M152.307,282.738
			c-4.059,0-5.692,3.759-6.41,7.129c-0.679,3.193-0.642,6.951,3.414,6.951c4.059,0,5.693-3.758,6.372-6.951
			C156.399,286.497,156.363,282.738,152.307,282.738z"/>
		<path fill="#FFFFFF" d="M169.016,300.547h-5.967l4.579-21.539h15.245l-0.888,4.177h-9.278l-1.065,5.012h8.621l-0.889,4.177h-8.621
			L169.016,300.547z"/>
		<path fill="#FFFFFF" d="M187.242,300.547h-5.966l4.58-21.539h15.244l-0.888,4.177h-9.278l-1.065,5.012h8.622l-0.889,4.177h-8.622
			L187.242,300.547z"/>
		<path fill="#FFFFFF" d="M199.386,300.547l4.579-21.539h5.967l-4.579,21.539H199.386z"/>
		<path fill="#FFFFFF" d="M226.153,285.781c0.263-1.939-0.965-3.043-3.41-3.043c-3.432,0-4.914,4.027-5.6,7.249
			c-0.666,3.132-0.766,6.831,2.606,6.831c2.505,0,4.171-1.104,4.729-3.162h6.265c-1.064,5.43-6.662,7.34-11.883,7.34
			c-6.712,0-9.465-4.027-7.93-11.248c1.534-7.219,5.975-11.127,12.7-11.187c5.22,0,10.03,1.79,8.787,7.22H226.153z"/>
		<path fill="#FFFFFF" d="M232.53,300.547l4.58-21.539h5.967l-4.58,21.539H232.53z"/>
		<path fill="#FFFFFF" d="M240.765,300.547l13.082-21.539h7.279l3.922,21.539h-6.742l-0.537-4.206h-8.741l-2.296,4.206H240.765z
			 M257.194,292.165l-0.842-8.95h-0.09l-4.826,8.95H257.194z"/>
		<path fill="#FFFFFF" d="M267.315,300.547l4.58-21.539h5.968l-3.692,17.362h9.756l-0.889,4.177H267.315z"/>
		<path fill="#FFFFFF" d="M309.157,279.008c7.398,0,11.664,2.804,9.972,10.77c-1.693,7.966-7.153,10.77-14.552,10.77h-9.099
			l4.579-21.539H309.157z M302.333,296.371h2.805c3.252,0,6.781-2.148,7.727-6.593s-1.672-6.593-4.922-6.593h-2.806L302.333,296.371
			z"/>
		<path fill="#FFFFFF" d="M320.391,300.547l4.579-21.539h16.408l-0.888,4.177h-10.441l-0.946,4.445h9.608l-0.89,4.176h-9.605
			l-0.971,4.564h10.442l-0.889,4.177H320.391z"/>
		<path fill="#FFFFFF" d="M338.529,300.547l13.083-21.539h7.28l3.921,21.539h-6.742l-0.538-4.206h-8.74l-2.297,4.206H338.529z
			 M354.959,292.165l-0.84-8.95h-0.091l-4.826,8.95H354.959z"/>
		<path fill="#FFFFFF" d="M365.082,300.547l4.579-21.539h5.968l-3.691,17.362h9.755l-0.888,4.177H365.082z"/>
		<path fill="#FFFFFF" d="M383.37,300.547l4.581-21.539h16.405l-0.888,4.177h-10.441l-0.944,4.445h9.606l-0.889,4.176h-9.605
			l-0.971,4.564h10.439l-0.887,4.177H383.37z"/>
		<path fill="#FFFFFF" d="M409.116,300.547h-5.968l4.581-21.539h9.963c3.64,0,8.144,0.985,7.174,5.55
			c-0.686,3.221-3.522,4.922-6.612,5.279l-0.025,0.119c3.801,0.09,4.104,2.029,3.781,5.37c-0.231,1.79-0.266,3.491-0.127,5.221
			h-6.473c-0.012-1.491,0.141-3.043,0.314-4.564c0.313-2.595,0.422-3.669-2.621-3.669h-2.237L409.116,300.547z M414.082,288.137
			c1.909,0,3.814-0.269,4.284-2.476c0.47-2.209-1.322-2.477-3.231-2.477h-2.328l-1.053,4.952H414.082z"/>
	</g>
</g>
</svg>
