<?xml version="1.0" encoding="utf-8"?>
<!-- Generator: Adobe Illustrator 16.0.4, SVG Export Plug-In . SVG Version: 6.00 Build 0)  -->
<!DOCTYPE svg PUBLIC "-//W3C//DTD SVG 1.1//EN" "http://www.w3.org/Graphics/SVG/1.1/DTD/svg11.dtd">
<svg version="1.1" id="Calque_1" xmlns="http://www.w3.org/2000/svg" xmlns:xlink="http://www.w3.org/1999/xlink" x="0px" y="0px"
	 width="499.999px" height="500px" viewBox="0 0 499.999 500" enable-background="new 0 0 499.999 500" xml:space="preserve">
<circle fill="#FFFFFF" stroke="#9D9D9C" stroke-width="2" stroke-miterlimit="10" cx="250" cy="250" r="247.5"/>
<g>
	<g>
		<linearGradient id="SVGID_1_" gradientUnits="userSpaceOnUse" x1="110.8799" y1="199.0493" x2="110.8799" y2="258.5698">
			<stop  offset="0" style="stop-color:#B3B3B3"/>
			<stop  offset="1" style="stop-color:#999999"/>
		</linearGradient>
		<polygon fill="url(#SVGID_1_)" points="75,258.57 89.981,258.57 96.071,217.825 96.435,258.57 114.032,258.57 126.485,218.514 
			120.494,258.57 137.804,258.57 146.761,199.049 120.364,199.049 109.632,233.489 110.187,199.054 83.925,199.054 		"/>
		<linearGradient id="SVGID_2_" gradientUnits="userSpaceOnUse" x1="168.5361" y1="199.041" x2="168.5361" y2="258.5835">
			<stop  offset="0" style="stop-color:#B3B3B3"/>
			<stop  offset="1" style="stop-color:#999999"/>
		</linearGradient>
		<path fill="url(#SVGID_2_)" d="M196.036,258.57l-5.089-59.529h-24.608l-25.304,59.542h18.427l3.578-9.431h13.193v9.417H196.036z
			 M175.224,234.167h-7.697l7.697-21.046V234.167z"/>
		<linearGradient id="SVGID_3_" gradientUnits="userSpaceOnUse" x1="227.7266" y1="199.0371" x2="227.7266" y2="258.5649">
			<stop  offset="0" style="stop-color:#B3B3B3"/>
			<stop  offset="1" style="stop-color:#999999"/>
		</linearGradient>
		<polygon fill="url(#SVGID_3_)" points="199.252,258.561 214.282,258.561 219.624,223.021 224.761,258.565 247.252,258.565 
			256.201,199.041 240.796,199.041 235.54,234.035 230.905,199.037 208.216,199.037 		"/>
		<linearGradient id="SVGID_4_" gradientUnits="userSpaceOnUse" x1="267.9072" y1="199.0371" x2="267.9072" y2="258.5698">
			<stop  offset="0" style="stop-color:#B3B3B3"/>
			<stop  offset="1" style="stop-color:#999999"/>
		</linearGradient>
		<polygon fill="url(#SVGID_4_)" points="253.674,258.57 273.194,258.57 282.142,199.037 262.622,199.037 		"/>
		<linearGradient id="SVGID_5_" gradientUnits="userSpaceOnUse" x1="397.2256" y1="199.0371" x2="397.2256" y2="259.4292">
			<stop  offset="0" style="stop-color:#B3B3B3"/>
			<stop  offset="1" style="stop-color:#999999"/>
		</linearGradient>
		<path fill="url(#SVGID_5_)" d="M423.062,199.045l-6.271,42.237c0-0.045-1.334,18.147-26.25,18.147
			c-21.031,0-19.504-13.076-18.832-18.226l6.314-42.163c0,0,16.816-0.004,19.029-0.004l-5.979,39.794
			c-0.213,1.417-0.736,4.903,2.836,4.903c3.564,0,4.088-3.486,4.297-4.903l5.912-39.794
			C405.296,199.037,423.062,199.045,423.062,199.045z"/>
		<linearGradient id="SVGID_6_" gradientUnits="userSpaceOnUse" x1="327.1406" y1="199.0039" x2="327.1406" y2="259.4663">
			<stop  offset="0" style="stop-color:#B3B3B3"/>
			<stop  offset="1" style="stop-color:#999999"/>
		</linearGradient>
		<path fill="url(#SVGID_6_)" d="M364.372,201.745c-4.693-3.266-10.385-2.704-18.438-2.704h-59.623l-2.359,15.109h10.117
			l-6.595,44.411h19.134l6.583-44.368h12.519l-3.647,24.386c0,0-4.085,20.887,18.511,20.887c24.193,0,25.887-18.388,25.887-18.388
			l3.67-24.365C370.13,216.713,371.985,207.067,364.372,201.745z M348.032,238.839c-0.212,1.422-0.737,4.908-4.303,4.908
			c-3.567,0-3.041-3.486-2.833-4.908l2.974-19.774c0.269-1.826,0.738-4.922,4.309-4.922c3.566,0,3.092,3.096,2.824,4.922
			L348.032,238.839z"/>
	</g>
	<g>
		<path fill="#999999" d="M139.651,289.778c1.51-7.1,6.413-11.217,13.543-11.217s10.282,4.117,8.772,11.217
			c-1.509,7.1-6.412,11.217-13.542,11.217C141.294,300.995,138.142,296.878,139.651,289.778z M152.307,282.737
			c-4.058,0-5.692,3.759-6.409,7.13c-0.678,3.192-0.643,6.951,3.415,6.951s5.692-3.759,6.37-6.951
			C156.399,286.497,156.363,282.737,152.307,282.737z"/>
		<path fill="#999999" d="M169.016,300.547h-5.967l4.579-21.539h15.245l-0.888,4.176h-9.278l-1.065,5.012h8.621l-0.888,4.177h-8.622
			L169.016,300.547z"/>
		<path fill="#999999" d="M187.243,300.547h-5.967l4.58-21.539h15.244l-0.888,4.176h-9.278l-1.065,5.012h8.622l-0.889,4.177h-8.621
			L187.243,300.547z"/>
		<path fill="#999999" d="M199.386,300.547l4.579-21.539h5.967l-4.579,21.539H199.386z"/>
		<path fill="#999999" d="M226.153,285.78c0.263-1.939-0.965-3.043-3.41-3.043c-3.432,0-4.914,4.027-5.6,7.25
			c-0.666,3.132-0.766,6.832,2.605,6.832c2.506,0,4.172-1.104,4.729-3.162h6.265c-1.064,5.43-6.662,7.339-11.883,7.339
			c-6.712,0-9.465-4.027-7.93-11.247c1.534-7.219,5.975-11.128,12.7-11.187c5.22,0,10.03,1.79,8.787,7.219H226.153z"/>
		<path fill="#999999" d="M232.53,300.547l4.58-21.539h5.967l-4.58,21.539H232.53z"/>
		<path fill="#999999" d="M240.765,300.547l13.082-21.539h7.279l3.922,21.539h-6.742l-0.537-4.207h-8.741l-2.296,4.207H240.765z
			 M257.194,292.165l-0.842-8.95h-0.09l-4.826,8.95H257.194z"/>
		<path fill="#999999" d="M267.315,300.547l4.58-21.539h5.967l-3.691,17.363h9.756l-0.889,4.176H267.315z"/>
		<path fill="#999999" d="M309.157,279.008c7.398,0,11.664,2.804,9.972,10.77c-1.693,7.965-7.153,10.77-14.552,10.77h-9.099
			l4.579-21.539H309.157z M302.333,296.371h2.805c3.252,0,6.781-2.148,7.727-6.593s-1.672-6.593-4.924-6.593h-2.804L302.333,296.371
			z"/>
		<path fill="#999999" d="M320.391,300.547l4.579-21.539h16.407l-0.888,4.176h-10.44l-0.946,4.446h9.607l-0.889,4.176h-9.605
			l-0.971,4.564h10.441l-0.889,4.176H320.391z"/>
		<path fill="#999999" d="M338.528,300.547l13.083-21.539h7.278l3.922,21.539h-6.74l-0.539-4.207h-8.74l-2.297,4.207H338.528z
			 M354.958,292.165l-0.84-8.95h-0.091l-4.825,8.95H354.958z"/>
		<path fill="#999999" d="M365.081,300.547l4.58-21.539h5.965l-3.691,17.363h9.756l-0.887,4.176H365.081z"/>
		<path fill="#999999" d="M383.37,300.547l4.578-21.539h16.408l-0.889,4.176h-10.439l-0.947,4.446h9.607l-0.889,4.176h-9.605
			l-0.971,4.564h10.441l-0.887,4.176H383.37z"/>
		<path fill="#999999" d="M409.114,300.547h-5.965l4.578-21.539h9.965c3.641,0,8.145,0.985,7.174,5.549
			c-0.686,3.222-3.523,4.922-6.613,5.28l-0.025,0.12c3.801,0.089,4.105,2.028,3.781,5.37c-0.23,1.79-0.264,3.491-0.125,5.221h-6.475
			c-0.01-1.492,0.141-3.043,0.316-4.564c0.312-2.595,0.42-3.669-2.623-3.669h-2.236L409.114,300.547z M414.081,288.137
			c1.91,0,3.816-0.269,4.285-2.476c0.471-2.208-1.322-2.477-3.232-2.477h-2.326l-1.055,4.953H414.081z"/>
	</g>
</g>
</svg>
