<?xml version="1.0" encoding="utf-8"?>
<!-- Generator: Adobe Illustrator 16.0.4, SVG Export Plug-In . SVG Version: 6.00 Build 0)  -->
<!DOCTYPE svg PUBLIC "-//W3C//DTD SVG 1.1//EN" "http://www.w3.org/Graphics/SVG/1.1/DTD/svg11.dtd">
<svg version="1.1" id="Calque_1" xmlns="http://www.w3.org/2000/svg" xmlns:xlink="http://www.w3.org/1999/xlink" x="0px" y="0px"
	 width="500px" height="500px" viewBox="0 0 500 500" enable-background="new 0 0 500 500" xml:space="preserve">
<linearGradient id="SVGID_1_" gradientUnits="userSpaceOnUse" x1="250" y1="0" x2="250" y2="500.001">
	<stop  offset="0" style="stop-color:#555555"/>
	<stop  offset="1" style="stop-color:#4C4C4C"/>
</linearGradient>
<rect fill="url(#SVGID_1_)" width="500" height="500"/>
<g>
	<polygon fill="#FFFFFF" points="25,287.925 44.37,287.925 52.244,235.248 52.713,287.925 75.464,287.925 91.565,236.138 
		83.818,287.925 106.197,287.925 117.778,210.973 83.649,210.973 69.774,255.499 70.492,210.979 36.538,210.979 	"/>
	<path fill="#FFFFFF" d="M181.485,287.925l-6.58-76.963h-31.817l-32.713,76.98h23.823l4.627-12.192h17.058v12.175H181.485z
		 M154.578,256.375h-9.952l9.952-27.21V256.375z"/>
	<polygon fill="#FFFFFF" points="185.643,287.915 205.074,287.915 211.98,241.965 218.623,287.919 247.701,287.919 259.271,210.962 
		239.354,210.962 232.559,256.205 226.566,210.958 197.232,210.958 	"/>
	<polygon fill="#FFFFFF" points="256.003,287.925 281.241,287.925 292.809,210.958 267.572,210.958 	"/>
	<path fill="#FFFFFF" d="M475,210.968l-8.106,54.607c0-0.059-1.727,23.462-33.938,23.462c-27.19,0-25.217-16.906-24.348-23.563
		l8.165-54.511c0,0,21.741-0.005,24.6-0.005l-7.727,51.448c-0.275,1.832-0.953,6.34,3.665,6.34c4.609,0,5.286-4.508,5.556-6.34
		l7.643-51.448C452.032,210.958,475,210.968,475,210.968z"/>
	<path fill="#FFFFFF" d="M399.122,214.457c-6.067-4.222-13.426-3.495-23.836-3.495H298.2l-3.051,19.534h13.082l-8.526,57.418h24.738
		l8.511-57.363h16.186l-4.717,31.529c0,0-5.28,27.004,23.932,27.004c31.28,0,33.469-23.773,33.469-23.773l4.744-31.501
		C406.566,233.81,408.966,221.339,399.122,214.457z M377.998,262.416c-0.274,1.839-0.954,6.346-5.564,6.346
		c-4.611,0-3.931-4.507-3.662-6.346l3.845-25.565c0.347-2.361,0.955-6.364,5.57-6.364c4.611,0,3.999,4.002,3.652,6.364
		L377.998,262.416z"/>
</g>
</svg>
