<?xml version="1.0" encoding="utf-8"?>
<!-- Generator: Adobe Illustrator 16.0.4, SVG Export Plug-In . SVG Version: 6.00 Build 0)  -->
<!DOCTYPE svg PUBLIC "-//W3C//DTD SVG 1.1//EN" "http://www.w3.org/Graphics/SVG/1.1/DTD/svg11.dtd">
<svg version="1.1" id="Calque_1" xmlns="http://www.w3.org/2000/svg" xmlns:xlink="http://www.w3.org/1999/xlink" x="0px" y="0px"
	 width="500px" height="500px" viewBox="0 0 500 500" enable-background="new 0 0 500 500" xml:space="preserve">
<linearGradient id="SVGID_1_" gradientUnits="userSpaceOnUse" x1="250" y1="0" x2="250" y2="500">
	<stop  offset="0" style="stop-color:#E2001A"/>
	<stop  offset="1" style="stop-color:#C20016"/>
</linearGradient>
<rect fill="url(#SVGID_1_)" width="500" height="500"/>
<g>
	<g>
		<polygon fill="#FFFFFF" points="75,258.57 89.982,258.57 96.072,217.826 96.436,258.57 114.033,258.57 126.486,218.514 
			120.494,258.57 137.803,258.57 146.761,199.05 120.363,199.05 109.632,233.489 110.187,199.054 83.924,199.054 		"/>
		<path fill="#FFFFFF" d="M196.037,258.57l-5.09-59.529h-24.608l-25.304,59.542h18.427l3.579-9.431h13.193v9.417H196.037z
			 M175.225,234.167h-7.697l7.697-21.046V234.167z"/>
		<polygon fill="#FFFFFF" points="199.252,258.562 214.282,258.562 219.624,223.021 224.762,258.565 247.252,258.565 
			256.201,199.042 240.797,199.042 235.541,234.035 230.905,199.038 208.217,199.038 		"/>
		<polygon fill="#FFFFFF" points="253.674,258.57 273.195,258.57 282.143,199.038 262.622,199.038 		"/>
		<path fill="#FFFFFF" d="M423.061,199.046l-6.27,42.237c0-0.045-1.336,18.147-26.25,18.147c-21.031,0-19.504-13.076-18.832-18.226
			l6.314-42.163c0,0,16.816-0.004,19.027-0.004l-5.977,39.794c-0.213,1.417-0.738,4.903,2.834,4.903c3.566,0,4.09-3.486,4.299-4.903
			l5.912-39.794C405.297,199.038,423.061,199.046,423.061,199.046z"/>
		<path fill="#FFFFFF" d="M364.373,201.745c-4.693-3.266-10.385-2.704-18.438-2.704h-59.623l-2.36,15.109h10.118l-6.596,44.411
			h19.135l6.582-44.368h12.52l-3.648,24.386c0,0-4.084,20.887,18.512,20.887c24.193,0,25.887-18.388,25.887-18.388l3.668-24.365
			C370.129,216.714,371.986,207.068,364.373,201.745z M348.033,238.839c-0.211,1.422-0.736,4.908-4.303,4.908
			c-3.568,0-3.041-3.486-2.834-4.908l2.975-19.774c0.27-1.826,0.738-4.922,4.309-4.922c3.566,0,3.092,3.096,2.824,4.922
			L348.033,238.839z"/>
	</g>
	<g>
		<path fill="#FFFFFF" d="M139.652,289.778c1.51-7.1,6.412-11.217,13.543-11.217c7.129,0,10.281,4.117,8.771,11.217
			c-1.509,7.1-6.412,11.217-13.542,11.217S138.143,296.878,139.652,289.778z M152.307,282.738c-4.058,0-5.691,3.759-6.408,7.13
			c-0.68,3.192-0.643,6.951,3.414,6.951s5.691-3.759,6.371-6.951C156.4,286.497,156.363,282.738,152.307,282.738z"/>
		<path fill="#FFFFFF" d="M169.016,300.548h-5.967l4.58-21.539h15.244l-0.888,4.176h-9.278l-1.065,5.012h8.622l-0.889,4.177h-8.621
			L169.016,300.548z"/>
		<path fill="#FFFFFF" d="M187.244,300.548h-5.967l4.58-21.539h15.244l-0.889,4.176h-9.277l-1.066,5.012h8.623l-0.889,4.177h-8.621
			L187.244,300.548z"/>
		<path fill="#FFFFFF" d="M199.386,300.548l4.579-21.539h5.967l-4.579,21.539H199.386z"/>
		<path fill="#FFFFFF" d="M226.153,285.781c0.263-1.939-0.964-3.043-3.41-3.043c-3.431,0-4.913,4.027-5.599,7.25
			c-0.666,3.132-0.766,6.832,2.604,6.832c2.507,0,4.173-1.104,4.729-3.162h6.266c-1.065,5.43-6.662,7.339-11.883,7.339
			c-6.713,0-9.466-4.027-7.931-11.247c1.534-7.219,5.976-11.128,12.7-11.187c5.221,0,10.031,1.79,8.787,7.219H226.153z"/>
		<path fill="#FFFFFF" d="M232.531,300.548l4.579-21.539h5.967l-4.579,21.539H232.531z"/>
		<path fill="#FFFFFF" d="M240.765,300.548l13.082-21.539h7.279l3.923,21.539h-6.742l-0.538-4.207h-8.741l-2.296,4.207H240.765z
			 M257.195,292.165l-0.842-8.95h-0.09l-4.826,8.95H257.195z"/>
		<path fill="#FFFFFF" d="M267.316,300.548l4.58-21.539h5.967l-3.691,17.363h9.755l-0.888,4.176H267.316z"/>
		<path fill="#FFFFFF" d="M309.158,279.009c7.398,0,11.664,2.804,9.971,10.77s-7.152,10.77-14.551,10.77h-9.1l4.58-21.539H309.158z
			 M302.334,296.372h2.805c3.251,0,6.78-2.148,7.726-6.593s-1.671-6.593-4.923-6.593h-2.805L302.334,296.372z"/>
		<path fill="#FFFFFF" d="M320.391,300.548l4.58-21.539h16.408l-0.889,4.176h-10.441l-0.945,4.446h9.607l-0.889,4.176h-9.606
			l-0.97,4.564h10.441l-0.889,4.176H320.391z"/>
		<path fill="#FFFFFF" d="M338.529,300.548l13.084-21.539h7.277l3.922,21.539h-6.74l-0.539-4.207h-8.74l-2.297,4.207H338.529z
			 M354.959,292.165l-0.84-8.95h-0.09l-4.826,8.95H354.959z"/>
		<path fill="#FFFFFF" d="M365.08,300.548l4.58-21.539h5.967l-3.691,17.363h9.756l-0.889,4.176H365.08z"/>
		<path fill="#FFFFFF" d="M383.369,300.548l4.58-21.539h16.406l-0.887,4.176h-10.441l-0.945,4.446h9.607l-0.889,4.176h-9.605
			l-0.971,4.564h10.439l-0.887,4.176H383.369z"/>
		<path fill="#FFFFFF" d="M409.115,300.548h-5.967l4.58-21.539h9.963c3.641,0,8.145,0.985,7.174,5.549
			c-0.686,3.222-3.521,4.922-6.611,5.28l-0.025,0.12c3.801,0.089,4.104,2.028,3.781,5.37c-0.232,1.79-0.266,3.491-0.127,5.221
			h-6.473c-0.012-1.492,0.141-3.043,0.314-4.564c0.312-2.595,0.422-3.669-2.621-3.669h-2.238L409.115,300.548z M414.082,288.138
			c1.908,0,3.814-0.269,4.283-2.476c0.471-2.208-1.322-2.477-3.23-2.477h-2.328l-1.053,4.953H414.082z"/>
	</g>
</g>
</svg>
